<svg height="34" viewBox="0 0 39 34" width="39" xmlns="http://www.w3.org/2000/svg"><g transform="translate(-58 -317)"><rect fill="#d6d6d6" height="15.583" rx="1" width="17" x="58" y="320.125"/><rect fill="#fff" height="9.917" rx=".5" width="14.167" x="59.417" y="324.375"/><g fill="#d6d6d6"><g stroke="#fff"><rect height="3.542" rx=".708" stroke="none" width="1.417" x="60.833" y="318"/><rect fill="none" height="4.542" rx="1.208" width="2.417" x="60.333" y="317.5"/></g><g stroke="#fff"><rect height="3.542" rx=".708" stroke="none" width="1.417" x="70.75" y="318"/><rect fill="none" height="4.542" rx="1.208" width="2.417" x="70.25" y="317.5"/></g><path d="m-2.429-.343a7.342 7.342 0 0 1 -.042.843h.833v-.416h3.255v.416h.847a7.091 7.091 0 0 1 -.042-.847v-4.518a6.325 6.325 0 0 1 .035-.714 5.633 5.633 0 0 1 -.756.035h-3.388a6.179 6.179 0 0 1 -.777-.035c.021.231.035.476.035.749zm.791-4.457h3.255v1.624h-3.255zm0 2.359h3.255v1.79h-3.255z" transform="translate(66.5 332)"/></g></g><g transform="translate(-43 -309)"><rect fill="#c00" height="22" rx="1" width="24" x="58" y="321"/><rect fill="#fff" height="14" rx=".5" width="20" x="60" y="327"/><g fill="#c00"><g stroke="#fff"><rect height="5" rx="1" stroke="none" width="2" x="62" y="318"/><rect fill="none" height="6" rx="1.5" width="3" x="61.5" y="317.5"/></g><g stroke="#fff"><rect height="5" rx="1" stroke="none" width="2" x="76" y="318"/><rect fill="none" height="6" rx="1.5" width="3" x="75.5" y="317.5"/></g><path d="m.8-5.16h-.29a6.513 6.513 0 0 1 -.85-.04v.88a7.813 7.813 0 0 1 .85-.04h1.61a7.281 7.281 0 0 1 .84.04v-.88a6.345 6.345 0 0 1 -.84.04h-.38v-.52h.26c.34 0 .6.01.83.03v-.84a6.779 6.779 0 0 1 -.83.04h-.26v-.08a2.809 2.809 0 0 1 .04-.46h-1.02a3.011 3.011 0 0 1 .04.45v.09h-.17a7.06 7.06 0 0 1 -.84-.04v.84c.23-.02.5-.03.84-.03h.17zm2.36-2.02v5.33c0 .23-.03.25-.39.25-.3 0-.6-.02-.9-.05a1.922 1.922 0 0 1 .22.92c.22.01.31.01.45.01a5.24 5.24 0 0 0 1.1-.08c.4-.11.56-.34.56-.84v-5.45a8.476 8.476 0 0 1 .04-1.06 8.1 8.1 0 0 1 -1.04.04h-3.72a9.01 9.01 0 0 1 -1.06-.04 8.965 8.965 0 0 1 .05 1.19c0 3.83-.06 4.35-.68 5.44a3.335 3.335 0 0 1 .86.73 5.55 5.55 0 0 0 .69-2.23c.08-.62.14-2.33.14-3.85v-.31zm-2.44 5.76v-.42h1.54c.17 0 .33.01.46.02-.01-.15-.02-.28-.02-.53v-1.03c0-.24.01-.38.02-.63a5.853 5.853 0 0 1 -.62.03h-1.67c-.22 0-.39-.01-.62-.03.02.22.03.41.03.65v1.2a6.61 6.61 0 0 1 -.03.74zm0-1.81h1.13v.62h-1.13zm-5.21-4.31a10.087 10.087 0 0 1 1.7 1.87l.83-.81a11.735 11.735 0 0 0 -1.73-1.81zm-.08 4.04a3.686 3.686 0 0 1 .68-.05h.54v2.15a6.506 6.506 0 0 1 -1.38.98l.55 1.06a10.7 10.7 0 0 0 1.35-1.12 2.469 2.469 0 0 0 1.27.92 11.383 11.383 0 0 0 3.04.21c.82 0 2.04-.03 3.02-.07a4.063 4.063 0 0 1 .3-1.14 35.178 35.178 0 0 1 -4.29.2 7.743 7.743 0 0 1 -1.72-.15 1.8 1.8 0 0 1 -.65-.3 1.353 1.353 0 0 1 -.44-.52v-2.16a10.076 10.076 0 0 1 .04-1.09 4.334 4.334 0 0 1 -.76.05h-.75a4.472 4.472 0 0 1 -.8-.05z" transform="translate(70 338)"/></g></g></svg>