<svg height="34" viewBox="0 0 39 34" width="39" xmlns="http://www.w3.org/2000/svg"><g transform="translate(-58 -317)"><rect fill="#d6d6d6" height="15.583" rx="1" width="17" x="58" y="320.125"/><rect fill="#fff" height="9.917" rx=".5" width="14.167" x="59.417" y="324.375"/><g fill="#d6d6d6"><g stroke="#fff"><rect height="3.542" rx=".708" stroke="none" width="1.417" x="60.833" y="318"/><rect fill="none" height="4.542" rx="1.208" width="2.417" x="60.333" y="317.5"/></g><g stroke="#fff"><rect height="3.542" rx=".708" stroke="none" width="1.417" x="70.75" y="318"/><rect fill="none" height="4.542" rx="1.208" width="2.417" x="70.25" y="317.5"/></g><path d="m.56-3.612h-.2a4.559 4.559 0 0 1 -.6-.028v.616a5.469 5.469 0 0 1 .6-.028h1.124a5.1 5.1 0 0 1 .588.028v-.616a4.442 4.442 0 0 1 -.588.028h-.266v-.364h.182c.238 0 .42.007.581.021v-.588a4.745 4.745 0 0 1 -.581.028h-.182v-.056a1.966 1.966 0 0 1 .028-.322h-.714a2.108 2.108 0 0 1 .028.315v.063h-.119a4.942 4.942 0 0 1 -.588-.028v.588c.161-.014.35-.021.588-.021h.119zm1.652-1.414v3.726c0 .161-.021.175-.273.175-.21 0-.42-.014-.63-.035a1.346 1.346 0 0 1 .154.644c.154.007.217.007.315.007a3.668 3.668 0 0 0 .77-.056c.28-.077.392-.238.392-.588v-3.81a5.933 5.933 0 0 1 .028-.737 5.669 5.669 0 0 1 -.728.028h-2.6a6.307 6.307 0 0 1 -.746-.028 6.276 6.276 0 0 1 .035.833c0 2.681-.042 3.045-.476 3.808a2.335 2.335 0 0 1 .6.511 3.885 3.885 0 0 0 .485-1.566c.056-.434.1-1.631.1-2.7v-.217zm-1.712 4.032v-.294h1.082c.119 0 .231.007.322.014-.007-.105-.014-.2-.014-.371v-.721c0-.168.007-.266.014-.441a4.1 4.1 0 0 1 -.434.021h-1.17c-.154 0-.273-.007-.434-.021.014.154.021.287.021.455v.84a4.627 4.627 0 0 1 -.021.518zm0-1.267h.8v.434h-.8zm-3.643-3.017a7.061 7.061 0 0 1 1.19 1.309l.581-.567a8.215 8.215 0 0 0 -1.211-1.264zm-.057 2.828a2.58 2.58 0 0 1 .476-.035h.378v1.5a4.554 4.554 0 0 1 -.966.686l.385.742a7.49 7.49 0 0 0 .945-.784 1.729 1.729 0 0 0 .889.644 7.968 7.968 0 0 0 2.129.152c.574 0 1.428-.021 2.114-.049a2.844 2.844 0 0 1 .21-.8 24.624 24.624 0 0 1 -3 .14 5.42 5.42 0 0 1 -1.2-.105 1.258 1.258 0 0 1 -.46-.208.947.947 0 0 1 -.31-.364v-1.512a7.053 7.053 0 0 1 .028-.763 3.034 3.034 0 0 1 -.532.035h-.525a3.131 3.131 0 0 1 -.56-.035z" transform="translate(66.5 332)"/></g></g><g transform="translate(-43 -309)"><rect fill="#c00" height="22" rx="1" width="24" x="58" y="321"/><rect fill="#fff" height="14" rx=".5" width="20" x="60" y="327"/><g fill="#c00"><g stroke="#fff"><rect height="5" rx="1" stroke="none" width="2" x="62" y="318"/><rect fill="none" height="6" rx="1.5" width="3" x="61.5" y="317.5"/></g><g stroke="#fff"><rect height="5" rx="1" stroke="none" width="2" x="76" y="318"/><rect fill="none" height="6" rx="1.5" width="3" x="75.5" y="317.5"/></g><path d="m-3.47-.49a10.489 10.489 0 0 1 -.06 1.21h1.19v-.6h4.65v.6h1.21a10.13 10.13 0 0 1 -.06-1.21v-6.46a9.036 9.036 0 0 1 .05-1.02 8.047 8.047 0 0 1 -1.08.05h-4.84a8.828 8.828 0 0 1 -1.11-.05c.03.33.05.68.05 1.07zm1.13-6.37h4.65v2.32h-4.65zm0 3.37h4.65v2.56h-4.65z" transform="translate(70 338)"/></g></g></svg>