<svg xmlns="http://www.w3.org/2000/svg" width="20.225" height="18.799" viewBox="0 0 20.225 18.799"><path d="M9.752,5.547,3.344,11.485v6.408a.6.6,0,0,0,.571.621H7.79a.6.6,0,0,0,.551-.631V14.148a.6.6,0,0,1,.561-.631h2.223a.591.591,0,0,1,.561.631v3.735a.651.651,0,0,0,.16.441.511.511,0,0,0,.391.19h3.895a.591.591,0,0,0,.561-.621V11.485L10.283,5.547A.391.391,0,0,0,9.752,5.547Zm10.123,3L17.022,5.888V.471A.451.451,0,0,0,16.551,0h-2a.441.441,0,0,0-.411.471V3.314L11.074.431a1.532,1.532,0,0,0-2.123,0L.15,8.581a.5.5,0,0,0,0,.661L1,10.463a.461.461,0,0,0,.28.17.391.391,0,0,0,.31-.11l8.16-7.58a.391.391,0,0,1,.531,0l8.17,7.58a.391.391,0,0,0,.551,0v-.05L19.9,9.252a.521.521,0,0,0,.13-.35.5.5,0,0,0-.15-.32Z" transform="translate(0.099 0.185)" fill="#707070" stroke="#707070" stroke-linecap="round" stroke-linejoin="round" stroke-width="0.2"/></svg>