<svg height="7.776" viewBox="0 0 10 7.776" width="10" xmlns="http://www.w3.org/2000/svg"><g fill="#c00" stroke-linecap="round" stroke-linejoin="round" transform="translate(.5 -2.465)"><path d="m3.38006997 10.09264565-.17817998-.17101956-3.37499998-3.2392602-.18156-.17425966.17543999-.18040037 1.04662999-1.0762496.17265004-.1775403.17917001.17095995 2.13017833 2.03260612 4.40609146-4.48763609.17595005-.17920994.17840051.17676997 1.0661192 1.05638003.17691993.17529988-.17462921.17758036-5.62500024 5.71987963z"/><path d="m3.375 9.74125576 5.625-5.71987963-1.06612015-1.05638003-4.57875991 4.66350007-2.30848992-2.20275021-1.04663002 1.07625008zm-.00004625.5c-.12459326 0-.24929929-.04628468-.34617377-.13926983l-3.37499997-3.23925972c-.09609002-.0922203-.15141001-.21896028-.15371-.35211038-.00228998-.13315964.04862999-.26172972.14147999-.35720969l1.04663003-1.07625007c.09796101-.10073233.2281633-.15141297.35850733-.15141297.12410105 0 .24832714.04590607.34511269.13826275l1.95187199 1.86246681 4.23342776-4.31177663c.09318018-.0948999.22034025-.1487701.35334015-.14968992.0011363-.00000786.00229025-.00001168.00342607-.00001168.13177538 0 .2582717.05201149.35194445.14483166l1.06611919 1.05638003c.19563008.19384003.19766999.50939012.00457001.70574975l-5.62499976 5.71988011c-.09780765.09945869-.22711563.14941978-.35654616.14941978z" fill="#c00"/></g></svg>