<svg xmlns="http://www.w3.org/2000/svg" viewBox="0 0 143.3 211.14"><g id="レイヤー_2" data-name="レイヤー 2"><g id="design"><path d="M4.31,207.62h8.35v2.46H0l8.54-14.92H1.4v-2.47H12.85Z"/><path d="M38.88,201.31A8.54,8.54,0,0,1,41.57,195,8.9,8.9,0,0,1,48,192.37a9.1,9.1,0,0,1,9,9,8.57,8.57,0,0,1-2.68,6.36,9.19,9.19,0,0,1-12.55.3A8.58,8.58,0,0,1,38.88,201.31Zm2.65,0a6.26,6.26,0,0,0,1.94,4.74,6.41,6.41,0,0,0,9.06,0,6.42,6.42,0,0,0,1.88-4.66,6.35,6.35,0,0,0-1.86-4.66,6.1,6.1,0,0,0-4.57-1.9,6.17,6.17,0,0,0-4.58,1.9A6.24,6.24,0,0,0,41.53,201.34Z"/><path d="M63,192.69v14.93h5.11v2.46H60.36V192.69Z"/><path d="M70.58,210.08V192.69h3.65a13.38,13.38,0,0,1,4.14.52,7.74,7.74,0,0,1,3,1.73,9,9,0,0,1-.12,12.93,8.17,8.17,0,0,1-3,1.73,13.5,13.5,0,0,1-4.08.48Zm2.63-2.46h1.18a9.76,9.76,0,0,0,2.94-.38,6,6,0,0,0,4-5.85,6,6,0,0,0-1.91-4.64,7.25,7.25,0,0,0-5.08-1.59H73.21Z"/><path d="M90,192.69v17.39H87.33V192.69Z"/><path d="M94.13,210.08V191.51l12.68,13.27V192.69h2.62v18.45L96.75,197.91v12.17Z"/><path d="M121.58,201h8.14v.57a11.81,11.81,0,0,1-.46,3.47,7.26,7.26,0,0,1-1.52,2.61,7.87,7.87,0,0,1-6.16,2.73,8.47,8.47,0,0,1-6.25-2.64,9.08,9.08,0,0,1,10.29-14.58,11.12,11.12,0,0,1,3.33,2.7l-1.87,1.79a6.36,6.36,0,0,0-5.22-2.85,6.2,6.2,0,0,0-4.62,1.91,6.33,6.33,0,0,0-1.87,4.68,6.17,6.17,0,0,0,2.08,4.79,6.23,6.23,0,0,0,4.22,1.74,5.25,5.25,0,0,0,3.48-1.3,4.64,4.64,0,0,0,1.72-3.16h-5.29Z"/><path d="M142.85,195.29l-2.12,1.26a3.73,3.73,0,0,0-1.14-1.36,2.66,2.66,0,0,0-1.45-.36,2.71,2.71,0,0,0-1.82.62,1.94,1.94,0,0,0-.72,1.54c0,.84.63,1.53,1.89,2l1.74.71a7.38,7.38,0,0,1,3.09,2.09,4.67,4.67,0,0,1,1,3,5.31,5.31,0,0,1-1.59,4,5.51,5.51,0,0,1-4,1.58,5.36,5.36,0,0,1-3.74-1.34,6.17,6.17,0,0,1-1.81-3.78l2.65-.58a4.54,4.54,0,0,0,.63,2.12,3,3,0,0,0,4.41.3,2.84,2.84,0,0,0,.81-2.08,3,3,0,0,0-.14-.93,2.52,2.52,0,0,0-.44-.78,3.38,3.38,0,0,0-.77-.66,6.59,6.59,0,0,0-1.13-.59l-1.68-.7q-3.57-1.51-3.57-4.42a4.17,4.17,0,0,1,1.5-3.27,5.4,5.4,0,0,1,3.73-1.33A5.18,5.18,0,0,1,142.85,195.29Z"/><polygon points="32.96 192.69 32.96 200.16 25.46 200.16 25.46 192.69 22.84 192.69 22.84 210.08 25.46 210.08 25.46 202.62 32.96 202.62 32.96 210.08 35.58 210.08 35.58 192.69 32.96 192.69"/><path d="M78.45,2.26a0,0,0,0,0,0,0h0a1.33,1.33,0,0,0,.92.38H95A1.34,1.34,0,0,0,95,0H79.4a1.34,1.34,0,0,0-.91.37l0,0a1.63,1.63,0,0,0-.17.2,1.24,1.24,0,0,0-.1.2s0,0,0,0a2.25,2.25,0,0,0-.08.24,2.45,2.45,0,0,0,0,.27,1.49,1.49,0,0,0,.1.51A1.42,1.42,0,0,0,78.45,2.26Z"/><path d="M125.42,70.66l-3.91,3.9a1.34,1.34,0,0,0,0,1.89,1.34,1.34,0,0,0,1.89,0l3.9-3.91a1.33,1.33,0,1,0-1.88-1.88Z"/><path d="M119.66,78.67l-.16-.21a1.4,1.4,0,0,0-1.89,0,1.36,1.36,0,0,0-.39,1,2.28,2.28,0,0,0,0,.26,1.83,1.83,0,0,0,.08.25l.12.23a1.63,1.63,0,0,0,.17.2l.2.17.23.12.25.08.26,0a1.36,1.36,0,0,0,1-.39,1.56,1.56,0,0,0,.16-.2,1,1,0,0,0,.12-.23,1,1,0,0,0,.08-.25,1.7,1.7,0,0,0,0-.52,1,1,0,0,0-.08-.25A1,1,0,0,0,119.66,78.67Z"/><path d="M55.16,78.47l-7.81,7.8a1.34,1.34,0,0,0,0,1.89,1.33,1.33,0,0,0,1.88,0L57,80.35a1.33,1.33,0,0,0-1.88-1.88Z"/><path d="M80.34,117.49a1.33,1.33,0,0,0-1.88,0l-3.9,3.91a1.33,1.33,0,1,0,1.88,1.88l3.9-3.9A1.32,1.32,0,0,0,80.34,117.49Z"/><path d="M66.7,41.11a1.73,1.73,0,0,0,.17.21,1.08,1.08,0,0,0,.2.16,1.71,1.71,0,0,0,.23.13,1,1,0,0,0,.25.07,1.09,1.09,0,0,0,.26,0l.26,0a1.17,1.17,0,0,0,.25-.07l.23-.13a1.56,1.56,0,0,0,.2-.16,1.34,1.34,0,0,0,.39-1,1.22,1.22,0,0,0,0-.26,1.09,1.09,0,0,0-.07-.24.94.94,0,0,0-.13-.24,1,1,0,0,0-.16-.2,1.37,1.37,0,0,0-1.88,0,1.63,1.63,0,0,0-.17.2c0,.08-.09.16-.13.24a1.09,1.09,0,0,0-.07.24,1.22,1.22,0,0,0,0,.26,1.09,1.09,0,0,0,0,.26,1.11,1.11,0,0,0,.07.26A1.59,1.59,0,0,0,66.7,41.11Z"/><path d="M75.61,41.71a1.34,1.34,0,1,0,0-2.67h-3.9a1.34,1.34,0,0,0,0,2.67Z"/><path d="M75.61,31.24h-7.8a1.33,1.33,0,1,0,0,2.66h7.8a1.33,1.33,0,1,0,0-2.66Z"/><path d="M78.41,48.92a1.56,1.56,0,0,0,.16.2,1.36,1.36,0,0,0,1,.39,1.33,1.33,0,0,0,.94-.39,1.63,1.63,0,0,0,.17-.2l.12-.23a1.83,1.83,0,0,0,.08-.25,2.28,2.28,0,0,0,0-.26,1.32,1.32,0,0,0-.39-.94,1.38,1.38,0,0,0-1.89,0,1.35,1.35,0,0,0-.38.94,1.14,1.14,0,0,0,0,.26,1,1,0,0,0,.08.25A1,1,0,0,0,78.41,48.92Z"/><path d="M76.92,47.92a2.33,2.33,0,0,0-.07-.25l-.13-.23a1.31,1.31,0,0,0-.54-.45l-.1-.05a1.26,1.26,0,0,0-.43-.08H63.9a1.33,1.33,0,0,0,0,2.66H75.62a1.29,1.29,0,0,0,.51-.1,1.33,1.33,0,0,0,.71-.71,1.35,1.35,0,0,0,.11-.52A1.22,1.22,0,0,0,76.92,47.92Z"/><path d="M68.8,8.4a1.63,1.63,0,0,0-.17-.2,1.37,1.37,0,0,0-1.88,0,1,1,0,0,0-.16.2.76.76,0,0,0-.13.23,1,1,0,0,0-.07.25,1.15,1.15,0,0,0,0,.26,1.22,1.22,0,0,0,0,.26,1.17,1.17,0,0,0,.07.25.89.89,0,0,0,.13.23,1,1,0,0,0,.16.2,1.33,1.33,0,0,0,.94.39,1.32,1.32,0,0,0,.94-.39,1.63,1.63,0,0,0,.17-.2,1.27,1.27,0,0,0,.12-.23A2.41,2.41,0,0,0,69,9.4a2.6,2.6,0,0,0,0-.26,2.3,2.3,0,0,0,0-.26,1.83,1.83,0,0,0-.08-.25A1,1,0,0,0,68.8,8.4Z"/><path d="M75.5,7.81H71.6a1.33,1.33,0,1,0,0,2.66h3.9a1.33,1.33,0,0,0,0-2.66Z"/><path d="M67.69,2.67H75.5A1.34,1.34,0,0,0,75.5,0H67.69a1.34,1.34,0,0,0,0,2.67Z"/><path d="M63.79,2.67a1.15,1.15,0,0,0,.26,0,1.21,1.21,0,0,0,.25-.08,1,1,0,0,0,.23-.12,1,1,0,0,0,.2-.16,1.35,1.35,0,0,0,.39-.94,1.24,1.24,0,0,0,0-.27A2.33,2.33,0,0,0,65,.82.8.8,0,0,0,64.89.6a.83.83,0,0,0-.16-.21,1.39,1.39,0,0,0-1.88,0,.87.87,0,0,0-.17.21.78.78,0,0,0-.12.22,1.21,1.21,0,0,0-.08.25,1.23,1.23,0,0,0,0,.27,1.35,1.35,0,0,0,.39.94A1.38,1.38,0,0,0,63.79,2.67Z"/><path d="M83.08,132.74a1.21,1.21,0,0,0-.25.08,1.27,1.27,0,0,0-.23.12,1.56,1.56,0,0,0-.2.16,1.37,1.37,0,0,0-.39,1,1.33,1.33,0,0,0,.39.94,1.33,1.33,0,0,0,1.88,0,1.3,1.3,0,0,0,.4-.94,1.34,1.34,0,0,0-1.6-1.31Z"/><path d="M91.15,132.72h-3.9a1.33,1.33,0,1,0,0,2.66h3.9a1.33,1.33,0,0,0,0-2.66Z"/><path d="M91.15,124.91H83.34a1.34,1.34,0,0,0,0,2.67h7.81a1.34,1.34,0,0,0,0-2.67Z"/><path d="M78.93,127.47a1.25,1.25,0,0,0,.51.1,1.33,1.33,0,0,0,.94-.39,1.32,1.32,0,0,0,.39-.94,1.33,1.33,0,0,0-1.59-1.3,1,1,0,0,0-.25.07,1,1,0,0,0-.23.13,1,1,0,0,0-.2.16,1.33,1.33,0,0,0-.39.94,1.32,1.32,0,0,0,.39.94A1.13,1.13,0,0,0,78.93,127.47Z"/><path d="M95,166.61a1.24,1.24,0,0,0,.5-.1,1.6,1.6,0,0,0,.44-.29,1.06,1.06,0,0,0,.16-.21,1,1,0,0,0,.13-.23,2.17,2.17,0,0,0,.07-.24,1.15,1.15,0,0,0,0-.26,1.24,1.24,0,0,0,0-.27,2.17,2.17,0,0,0-.07-.24,1.71,1.71,0,0,0-.13-.23,1.06,1.06,0,0,0-.16-.21,1.56,1.56,0,0,0-.2-.16l-.24-.12a1.13,1.13,0,0,0-.24-.08,1.14,1.14,0,0,0-.52,0,1.12,1.12,0,0,0-.26.08.94.94,0,0,0-.22.12,1,1,0,0,0-.37.37,1.71,1.71,0,0,0-.13.23,1.09,1.09,0,0,0-.07.24,1.24,1.24,0,0,0,0,.27,1.35,1.35,0,0,0,.39.94,1.06,1.06,0,0,0,.21.16,1,1,0,0,0,.22.13l.25.07A1.18,1.18,0,0,0,95,166.61Z"/><path d="M98.92,166.6a1.32,1.32,0,0,0,.94-.38,1.35,1.35,0,0,0,.39-.94,2.45,2.45,0,0,0,0-.27,2.25,2.25,0,0,0-.08-.24l-.12-.23a1.73,1.73,0,0,0-.17-.21,1.39,1.39,0,0,0-1.88,0,1.36,1.36,0,0,0-.39.95,1.31,1.31,0,0,0,.39.94,1.23,1.23,0,0,0,.43.28A1.25,1.25,0,0,0,98.92,166.6Z"/><path d="M106.73,163.94h-3.91a1.34,1.34,0,0,0,0,2.67h3.91a1.34,1.34,0,0,0,0-2.67Z"/><path d="M108,173.37a1.24,1.24,0,0,0,.06-.29,1.32,1.32,0,0,0-.34-.86.56.56,0,0,0,0-.08,1.73,1.73,0,0,0-.21-.17l-.18-.09-.06,0a1,1,0,0,0-.24-.08h-.13l-.12,0H95a1.33,1.33,0,1,0,0,2.66h11.71a1.32,1.32,0,0,0,.44-.08l.07,0a1.25,1.25,0,0,0,.24-.16,2,2,0,0,0,.19-.12,1.81,1.81,0,0,0,.19-.29,1.1,1.1,0,0,0,.09-.14A1.55,1.55,0,0,0,108,173.37Z"/><path d="M32.56,93.68A1.34,1.34,0,0,0,31.23,95v7.81a1.33,1.33,0,0,0,1.33,1.33,1.29,1.29,0,0,0,.94-.39L41.31,96a1.33,1.33,0,1,0-1.88-1.89L33.89,99.6V95A1.33,1.33,0,0,0,32.56,93.68Z"/><path d="M1.33,10.47a1.3,1.3,0,0,0,.94-.39,1.3,1.3,0,0,0,0-1.88,1.37,1.37,0,0,0-1.88,0,1.33,1.33,0,0,0,0,1.88A1.35,1.35,0,0,0,1.33,10.47Z"/><path d="M4.5,10.24a.65.65,0,0,0,.23.13,1,1,0,0,0,.25.07,1.09,1.09,0,0,0,.26,0l.26,0a1.36,1.36,0,0,0,.25-.07A.89.89,0,0,0,6,10.24a1,1,0,0,0,.2-.16,1.33,1.33,0,0,0,0-1.88L6,8a2.53,2.53,0,0,0-.23-.12,1.44,1.44,0,0,0-.25-.08,1.51,1.51,0,0,0-.52,0,1,1,0,0,0-.25.08A1.24,1.24,0,0,0,4.5,8a1.12,1.12,0,0,0-.2.17,1.3,1.3,0,0,0,0,1.88A.78.78,0,0,0,4.5,10.24Z"/><path d="M13,10.47a1.33,1.33,0,1,0,0-2.66H9.14a1.33,1.33,0,0,0,0,2.66Z"/><path d="M5.24,2.67H13A1.34,1.34,0,1,0,13,0H5.24a1.34,1.34,0,0,0,0,2.67Z"/><path d="M1.33,2.67a1.34,1.34,0,0,0,.94-.39,1.32,1.32,0,0,0,.4-.95,1.15,1.15,0,0,0,0-.26A1.17,1.17,0,0,0,2.57.82,1.71,1.71,0,0,0,2.44.59a1.06,1.06,0,0,0-.17-.2A1.37,1.37,0,0,0,.39.39a1,1,0,0,0-.16.2A1,1,0,0,0,.11.82,1.21,1.21,0,0,0,0,1.07a1.15,1.15,0,0,0,0,.26,1.36,1.36,0,0,0,.39.95A1.4,1.4,0,0,0,1.33,2.67Z"/><path d="M13.05,18.28a1.49,1.49,0,0,0,.51-.1,1.4,1.4,0,0,0,.44-.31,1.24,1.24,0,0,0,.27-.4h0a2.17,2.17,0,0,0,.07-.24,1.22,1.22,0,0,0,0-.26,1.31,1.31,0,0,0-.11-.52A1.33,1.33,0,0,0,14,16h0l-.05,0a1.32,1.32,0,0,0-.9-.36H1.33a1.34,1.34,0,0,0,0,2.67h4.6L.39,23.81A1.34,1.34,0,0,0,2.28,25.7l5.53-5.54v4L.39,31.62A1.33,1.33,0,1,0,2.28,33.5L7.81,28v4L.39,39.43a1.33,1.33,0,1,0,1.89,1.88l5.53-5.53v4L.39,47.23a1.34,1.34,0,0,0,1.89,1.89l5.53-5.54v4.59a1.33,1.33,0,1,0,2.66,0V43.58L16,49.12a1.23,1.23,0,0,0,.43.28,1.26,1.26,0,0,0,.51.11H48.19a1.16,1.16,0,0,0,.49-.1,1.27,1.27,0,0,0,.44-.28l3-3,3,3a1.33,1.33,0,1,0,1.88-1.89l-3-2.95L57.26,41a5.11,5.11,0,0,0,5.41-.09h0a.94.94,0,0,0,.12.22,1.06,1.06,0,0,0,.16.21,1.34,1.34,0,0,0,1.89,0,1.66,1.66,0,0,0,.16-.21.94.94,0,0,0,.12-.22,1.12,1.12,0,0,0,.08-.26,1.1,1.1,0,0,0,0-.26,1.18,1.18,0,0,0,0-.26,1.13,1.13,0,0,0-.08-.24,1.34,1.34,0,0,0-.12-.24,1.56,1.56,0,0,0-.16-.2,1.36,1.36,0,0,0-.49-.29,5.17,5.17,0,0,0,.76-2.68,5.11,5.11,0,0,0-.75-2.65,1.5,1.5,0,0,0,.48-.3,1.56,1.56,0,0,0,.16-.2,1,1,0,0,0,.12-.23,1.21,1.21,0,0,0,.08-.25,1.77,1.77,0,0,0,0-.53,1.13,1.13,0,0,0-.08-.24,0,0,0,0,0,0,0V25.37a5.1,5.1,0,0,0,2.57.7,5.25,5.25,0,0,0,2.55-.68l4.27,4.27a1.33,1.33,0,1,0,1.89-1.88l-4.24-4.24a5.08,5.08,0,0,0,.07-5.26H75.5a1.45,1.45,0,0,0,.51-.1,1.37,1.37,0,0,0,.72-.72,1.29,1.29,0,0,0,.1-.51,1.25,1.25,0,0,0-.1-.51,1.16,1.16,0,0,0-.18-.27,1.63,1.63,0,0,0-.11-.17s-.08,0-.11-.07a1.3,1.3,0,0,0-.83-.32H64.34l-7-7v-4l5.54,5.53a1.34,1.34,0,0,0,.23.16,1,1,0,0,0,.2.13,1.35,1.35,0,0,0,1,0,.76.76,0,0,0,.16-.11,1.16,1.16,0,0,0,.27-.18h0a.9.9,0,0,0,.15-.19A1.34,1.34,0,0,0,65,9.65a2.33,2.33,0,0,0,.07-.25,1.15,1.15,0,0,0,0-.26h0a.29.29,0,0,0,0-.09A1.42,1.42,0,0,0,65,8.64a.91.91,0,0,0-.15-.23,1.53,1.53,0,0,0-.14-.21L56.92.39A1.33,1.33,0,0,0,55,.39L47.62,7.81H33.89V2.67H48.18a1.34,1.34,0,0,0,0-2.67H16.69l-.22.07h0l0,0a1.24,1.24,0,0,0-.2.1l-.07.06-.07.06L16,.39a1.56,1.56,0,0,0-.16.2,2.12,2.12,0,0,0-.11.21v0h0a.64.64,0,0,1,0,.07.23.23,0,0,0,0,.11l0,.07a1.79,1.79,0,0,0,0,.23V17a1.94,1.94,0,0,0,0,.24,1.13,1.13,0,0,0,.08.24h0a.05.05,0,0,0,0,0,1.86,1.86,0,0,0,.1.2,1.56,1.56,0,0,0,.16.2h0a1,1,0,0,0,.19.15,1,1,0,0,0,.18.1l.08,0a.81.81,0,0,0,.22.07,1.09,1.09,0,0,0,.26,0h20.2l-3.94,3.94a5.18,5.18,0,0,0-8.46-.92,5.17,5.17,0,0,0-8.45.92l-3.94-3.94h.69ZM16,33.5a1.31,1.31,0,0,0,.94.39H31.23V39H17.5l-7-7V28Zm-5.54,2.28L16,41.31a1.42,1.42,0,0,0,.43.29,1.45,1.45,0,0,0,.51.1H31.23v5.14H17.5l-7-7Zm23.42-1.89h9v13h-9Zm13,13H45.6V38h1.24Zm2.67-18.18V25.31L56,18.83l6.48,6.48v5.92h-13Zm-1.89-13H33.89V10.47H48.17a1.34,1.34,0,0,0,.52-.1,1.22,1.22,0,0,0,.38-.26l0,0,5.53-5.53v4ZM24.75,7.26,20.16,2.67h9.18Zm-6.47,1.9V4.55l5.53,5.53a1.34,1.34,0,0,0,1.89,0l5.53-5.53V15.61H18.28ZM59.89,39a2.57,2.57,0,1,1,2.57-2.57A2.58,2.58,0,0,1,59.89,39ZM70.26,20.84a2.57,2.57,0,1,1-2.68-2.56h.22A2.57,2.57,0,0,1,70.26,20.84Zm-7.41-2.95h0a1.13,1.13,0,0,0,.36.24,5.18,5.18,0,0,0-.77,2.7,6.85,6.85,0,0,0,.07.78L57.31,16.4v-4Zm-18.58.39h3.9a1.45,1.45,0,0,0,.51-.1,1.34,1.34,0,0,0,.42-.28h0l5.53-5.53v4l-7,7H41.7V18.28ZM39,20.16v4.59a1.33,1.33,0,0,0,1.33,1.34h6.47v6.47a1.33,1.33,0,0,0,1.34,1.33h7.17a5.09,5.09,0,0,0,0,5.2l-4.25,4.25L49.51,45V36.7a1.34,1.34,0,0,0-1.33-1.34H45.6v-2.8a1.33,1.33,0,0,0-1.33-1.33H40.92l-6.47-6.48Zm-10.38,2a2.58,2.58,0,0,1,2.57,2.57,1.5,1.5,0,0,0,.1.52,1.55,1.55,0,0,0,.29.43l5.53,5.53H26.09V24.75A2.58,2.58,0,0,1,28.66,22.18Zm-7.81,0a2.58,2.58,0,0,1,2.57,2.57v6.48H17.5l-7-7v-4L16,25.7a1.23,1.23,0,0,0,.43.28,1.26,1.26,0,0,0,.51.11,1.37,1.37,0,0,0,1.23-.83,1.25,1.25,0,0,0,.1-.51A2.58,2.58,0,0,1,20.85,22.18Z"/><path d="M128.93,41.36v3.3a1.33,1.33,0,1,0,2.66,0v-3.3a1.33,1.33,0,0,0-2.66,0Z"/><path d="M132.83,41.36v3.3a1.33,1.33,0,1,0,2.66,0v-3.3a1.33,1.33,0,0,0-2.66,0Z"/><path d="M136.73,41.36v3.3a1.33,1.33,0,1,0,2.66,0v-3.3a1.33,1.33,0,1,0-2.66,0Z"/><path d="M142.91,16A1.33,1.33,0,0,0,141,16l-5.53,5.53V17a1.34,1.34,0,0,0-2.67,0v4.59L128.25,17,140.64,4.56V9.17a1.33,1.33,0,1,0,2.66,0V1.34a1.29,1.29,0,0,0-.1-.51,1.34,1.34,0,0,0-.72-.72A1.25,1.25,0,0,0,142,0h-7.8a1.33,1.33,0,1,0,0,2.66h4.59l-12.4,12.4L119.88,8.6v-4l5.54,5.53a1.33,1.33,0,0,0,1.88-1.88L119.49.4a1.33,1.33,0,0,0-1.88,0L110.2,7.81h-2.14V5.24a5.24,5.24,0,1,0-10.47,0V7.81H79.4a1.34,1.34,0,0,0-1.23.81,1.4,1.4,0,0,0,0,1,2.43,2.43,0,0,0,.14.2,1.7,1.7,0,0,0,.15.22.62.62,0,0,0,.17.11.93.93,0,0,0,.26.18,1.18,1.18,0,0,0,.2,0,1.55,1.55,0,0,0,.31.06H93.68v5.14H79.4a1.28,1.28,0,0,0-.84.33.53.53,0,0,0-.1.06,1.25,1.25,0,0,0-.16.24,2.14,2.14,0,0,0-.13.19,1.5,1.5,0,0,0-.1.52,2.46,2.46,0,0,0,0,.26,1.55,1.55,0,0,0,.08.23l0,.06.09.19a.93.93,0,0,0,.16.18,1.25,1.25,0,0,0,.44.31,1.45,1.45,0,0,0,.51.1h4.72l-5.54,5.54a1.33,1.33,0,0,0,1.88,1.88L86,20.17v4l-7.41,7.41h0c-.06.06-.11.14-.16.2a1.34,1.34,0,0,0-.12.24h0v0a1.55,1.55,0,0,0-.07.23,1.79,1.79,0,0,0,0,.24,1.3,1.3,0,0,0,.1.52,1.18,1.18,0,0,0,.28.44,1.6,1.6,0,0,0,.44.29,1.33,1.33,0,0,0,1.45-.29L86,28v4.59a1.34,1.34,0,0,0,2.67,0V28l5.53,5.53a1.33,1.33,0,0,0,1.88,0L111.69,17.9l5.53-5.54v7.17h-2.57a1.32,1.32,0,0,0-1.33,1.33v7.8A1.33,1.33,0,0,0,114.65,30h2.57v2l-6.47,6.47-5.93-5.92,6.87-6.87a1.33,1.33,0,1,0-1.89-1.88l-7.8,7.8h0l-6.22,6.21a5.18,5.18,0,0,0-8.46-.92,5.21,5.21,0,0,0-9.13,3.45,1.28,1.28,0,0,0,.09.48s0,0,0,0a1.2,1.2,0,0,0,.15.24c0,.07.08.14.13.2l.21.16a.88.88,0,0,0,.21.12h0a1,1,0,0,0,.25.07.93.93,0,0,0,.24,0h0a1.5,1.5,0,0,0,.29-.06,1.74,1.74,0,0,0,.22,0,1.34,1.34,0,0,0,.28-.18s.11-.06.15-.1,0-.06.05-.08a1.22,1.22,0,0,0,.34-.87h0a2.57,2.57,0,1,1,5.14,0v7.81a1.34,1.34,0,0,0,2.67,0V40.37a2.57,2.57,0,1,1,5.14,0,1.25,1.25,0,0,0,.1.51,1.34,1.34,0,0,0,.72.72,1.29,1.29,0,0,0,1,0,1.23,1.23,0,0,0,.43-.28l5.54-5.54v4l-7.42,7.42a2.31,2.31,0,0,0-.51,1.12v11l-5.36-8a1.33,1.33,0,0,0-2.44.74v8.47L80.34,55a1.33,1.33,0,0,0-2.27.94v7.81a1.34,1.34,0,0,0,2.67,0V59.2l4.65,4.65-6.81,6.81a1.33,1.33,0,0,0,.94,2.27H91.91l-5.53,5.54a1.21,1.21,0,0,0-.3.51,5.16,5.16,0,0,0-5.42.06,1.24,1.24,0,0,0-.32-.58,1.33,1.33,0,0,0-1.88,0l-1.4,1.4a9.09,9.09,0,0,0-5.35-1.78H63.9a1.24,1.24,0,0,0-.5.1,1.21,1.21,0,0,0-.44.29L47.35,94.08A1.33,1.33,0,1,0,49.23,96L64.46,80.74h.7v0a9.11,9.11,0,0,0-2.67,6l-3.42,3.43a1.33,1.33,0,1,0,1.88,1.88l2-2a9.14,9.14,0,0,0,1.32,2.58l-1.39,1.4a1.34,1.34,0,0,0,0,1.89,1.33,1.33,0,0,0,1.88,0l2.06-2.06a.74.74,0,0,0,.4-.4l10.7-10.7a.74.74,0,0,0,.4-.4h0a5.49,5.49,0,0,0-.11,1.08,5.24,5.24,0,0,0,5.23,5.24,5.42,5.42,0,0,0,.58-.06l-5.42,5.42a1.34,1.34,0,0,0,0,1.89,1.33,1.33,0,0,0,1.88,0l5.62-5.63a5.5,5.5,0,0,0-.09.91,5.21,5.21,0,0,0,.73,2.62,1.24,1.24,0,0,0-.34.22L79,101.5H73V96.35h2.58a1.33,1.33,0,0,0,0-2.66H67.81a1.33,1.33,0,1,0,0,2.66h.68l-5.13,5.14H62.28a6.42,6.42,0,0,0-5.62-5.27.76.76,0,0,0,.18-.09A1.56,1.56,0,0,0,57,96a1.37,1.37,0,0,0,.39-1,1.33,1.33,0,0,0-.39-.94,1.06,1.06,0,0,0-.2-.17,1.67,1.67,0,0,0-.23-.12,1.21,1.21,0,0,0-.25-.08,1.51,1.51,0,0,0-.52,0,1,1,0,0,0-.25.08,1.67,1.67,0,0,0-.23.12,1.12,1.12,0,0,0-.21.17,1.37,1.37,0,0,0-.38.94,1.41,1.41,0,0,0,.38,1,1.66,1.66,0,0,0,.21.16l.15.08a6.39,6.39,0,0,0-5.82,5.28h-1.6a1.47,1.47,0,0,0-.35.08l-.12,0a1.22,1.22,0,0,0-.38.26h0l-7.8,7.81a1.08,1.08,0,0,0-.26.38,5.2,5.2,0,0,0-7.51,2.39,9.14,9.14,0,0,0-6.9-3.16,1.33,1.33,0,0,0-1.34,1.33v6.47H17a1.33,1.33,0,0,0-1.33,1.33,9.14,9.14,0,0,0,2.69,6.48H17.07a1.23,1.23,0,0,0-.77.17l-.06,0a.94.94,0,0,0-.23.16l-9,9v-3.77a1.33,1.33,0,1,0-2.66,0v7a1.33,1.33,0,0,0,.82,1.23,1.29,1.29,0,0,0,.51.1,1.33,1.33,0,0,0,.94-.39L16.65,128.4l3.05,5.28a1.34,1.34,0,0,0,2.31,0l3.55-6.15a9.14,9.14,0,0,0,8.3-8.48,5.06,5.06,0,0,0,5.15,0l4.28,4.27a1.33,1.33,0,1,0,1.88-1.88l-4.24-4.24a5.12,5.12,0,0,0,0-5.4,1.6,1.6,0,0,0,.38-.26L46.84,106v4.59a1.34,1.34,0,0,0,2.67,0v-1.37a9.07,9.07,0,0,0,3.69,2.26l-6,6a1.34,1.34,0,0,0,1,2.28H60.57L55,125.3h0l-6.86,6.86-6.87-6.86a1.42,1.42,0,0,0-.43-.29,1.38,1.38,0,0,0-1,0,1.42,1.42,0,0,0-.43.29l-7.81,7.81A1.33,1.33,0,0,0,33.5,135L39,129.46v4l-6.19,6.18-3-5.26a1.33,1.33,0,0,0-2.31,0L24,140.52h-5.7v-6.47a1.33,1.33,0,1,0-2.66,0v6.47H2.67v-13H9.14a1.33,1.33,0,0,0,0-2.66H1.34A1.34,1.34,0,0,0,0,126.24v15.62a1.34,1.34,0,0,0,1.34,1.33h0a6.48,6.48,0,0,1,0,12.95,1.33,1.33,0,1,0,0,2.66,9,9,0,0,0,3.9-.89,5.21,5.21,0,0,0-1.33,3.46v2.57H1.33A1.34,1.34,0,0,0,0,165.28v7.8a1.33,1.33,0,0,0,1.33,1.33H17a1.33,1.33,0,0,0,1.33-1.33v-7.8a2.57,2.57,0,1,1,5.14,0v7.8a1.34,1.34,0,0,0,2.67,0v-7.8a2.57,2.57,0,1,1,5.14,0v7.8a1.33,1.33,0,0,0,1.33,1.33h7.81a1.31,1.31,0,0,0,.94-.39l7.81-7.8,5.53-5.53v4l-7.42,7.42A1.33,1.33,0,0,0,49.12,174l5.53-5.53v4.59a1.33,1.33,0,1,0,2.66,0v-4.59L62.85,174a1.26,1.26,0,0,0,.43.29,1.29,1.29,0,0,0,.51.1H87.21a1.33,1.33,0,0,0,0-2.66H64.34l-7-7v-4l5.54,5.53a1.23,1.23,0,0,0,.43.28,1.3,1.3,0,0,0,.51.11H78.85l3.48,3.48a1.33,1.33,0,0,0,1.88,0l3-2.94L92,171.83a1.32,1.32,0,0,0,1.88,0,1.33,1.33,0,0,0,0-1.88l-4.71-4.66,3-2.93a1.33,1.33,0,0,0,0-1.89l-3.55-3.54v-4l5.53,5.52h0a1.12,1.12,0,0,0,.21.17.94.94,0,0,0,.22.12,1.21,1.21,0,0,0,.25.08l.27,0H109.3v6.47h0v7.78h0a1.31,1.31,0,0,0,.11.52,1.09,1.09,0,0,0,.23.33.53.53,0,0,0,.06.1l.07.05a1.35,1.35,0,0,0,.87.34h15.61a1.32,1.32,0,0,0,1.2-.77,5.14,5.14,0,0,0,6.61-1,5.22,5.22,0,0,0,9.14-3.46,5.1,5.1,0,0,0-.78-2.7,1.34,1.34,0,0,0,.78-1.2v-7.81a1.33,1.33,0,0,0-1.33-1.33H126.24a1.33,1.33,0,1,0,0,2.66H128l-.9,1.8a1.29,1.29,0,0,0-.85-.33h-2.57v-2.8a1.32,1.32,0,0,0-1.33-1.33h-.69l5.14-5.14h15.07a1.34,1.34,0,0,0,0-2.67h-28l5.14-5.14h22.87a1.34,1.34,0,0,0,1.33-1.33V126.43a1.34,1.34,0,0,0-2.67,0v14.09h-5.14V130.17a1.33,1.33,0,1,0-2.66,0v10.35h-5.14v-6.47a1.33,1.33,0,0,0-1.34-1.33H112v-5.14h14.28a1.34,1.34,0,1,0,0-2.67H110.63a1.33,1.33,0,0,0-1.33,1.33v14.28h-5.85a5.1,5.1,0,0,0,.7-2.57v-7.8a5.24,5.24,0,0,0-5.23-5.24,5.16,5.16,0,0,0-2.67.76,1.4,1.4,0,0,0-.09-.17,1.56,1.56,0,0,0-.16-.2,1.49,1.49,0,0,0-.44-.29l-.24-.07a1.19,1.19,0,0,0-.53,0l-.25.07a1,1,0,0,0-.23.13,1,1,0,0,0-.2.16,1.63,1.63,0,0,0-.17.2l-.12.23c0,.09-.06.17-.08.25a2.46,2.46,0,0,0,0,.26,1.32,1.32,0,0,0,.39.94,1.19,1.19,0,0,0,.36.24,5.21,5.21,0,0,0-.79,2.73V138a5.19,5.19,0,0,0,.78,2.7l-.11.08,0,0,0,0a1.3,1.3,0,0,0-.59,1.08A1.34,1.34,0,0,0,95,143.19h20.2l-5.14,5.14H95.57l-5.14-5.14h.74a1,1,0,0,0,.24,0,.84.84,0,0,0,.24-.07l0,0,.19-.1.2-.17,0,0a1.31,1.31,0,0,0,.37-.91v0c0-.08,0-.15,0-.23a2.09,2.09,0,0,0-.08-.23s0,0,0-.05l-.1-.2a1.63,1.63,0,0,0-.17-.2.78.78,0,0,0-.2-.16l-.2-.11,0,0-.24-.07a.66.66,0,0,0-.14,0l-.12,0H80.67a17,17,0,0,0-1.22-5.14,1.31,1.31,0,0,0,.93-.39,1.33,1.33,0,0,0,.39-.94,1.36,1.36,0,0,0-.39-1,1.39,1.39,0,0,0-1.2-.36,1,1,0,0,0-.25.08,1,1,0,0,0-.23.12,1.56,1.56,0,0,0-.2.16,1,1,0,0,0-.11.17,17.21,17.21,0,0,0-5.94-6l.09-.07a1.55,1.55,0,0,0,.29-.43,1.29,1.29,0,0,0,.1-.51,1.22,1.22,0,0,0,0-.26,1.21,1.21,0,0,0-.08-.25,1.27,1.27,0,0,0-.12-.23,1,1,0,0,0-.16-.2,1.35,1.35,0,0,0-1.2-.36,1.11,1.11,0,0,0-.26.07.71.71,0,0,0-.22.13,1.06,1.06,0,0,0-.21.16c-.06.06-.11.13-.17.2l-.12.23a2.33,2.33,0,0,0-.07.25.76.76,0,0,0,0,.15,17.39,17.39,0,0,0-3.47-1L80,112h7.37a1.31,1.31,0,0,0,.52-.11,1.23,1.23,0,0,0,.43-.28l7.8-7.81a1.33,1.33,0,0,0,.39-.94v-7L104,92.08l-2,2A1.33,1.33,0,0,0,103.88,96l7.81-7.8A1.34,1.34,0,0,0,110.15,86l-8.27,4.14,9.81-9.81,15.22-15.22h7.26a1.3,1.3,0,0,0,.51-.11,1.23,1.23,0,0,0,.43-.28l7.8-7.81a1.33,1.33,0,0,0,.39-.94V48.18a1.29,1.29,0,0,0-.1-.51,1.34,1.34,0,0,0-.72-.72,1.25,1.25,0,0,0-.51-.1H126.91l-7-7v-4l5.54,5.54a1.33,1.33,0,0,0,1.88,0s0,0,0,0l6.84-6.83L141,41.31a1.35,1.35,0,0,0,.95.39,1.33,1.33,0,0,0,.94-2.27L135.5,32V28L141,33.5a1.33,1.33,0,1,0,1.88-1.88l-5.53-5.53H142a1.34,1.34,0,0,0,0-2.67h-4.59l5.53-5.53A1.33,1.33,0,0,0,142.91,16Zm-122,114.33-1.6-2.77h3.2Zm3.9-5.43a6.49,6.49,0,0,1-6.34-5.14h6.34a1.34,1.34,0,0,0,1.33-1.34V112.1a6.47,6.47,0,0,1-1.33,12.81Zm9.13-10.38a2.58,2.58,0,1,1,2.58,2.57A2.58,2.58,0,0,1,33.89,114.53Zm91,20.85v5.14H112v-5.14Zm-26-7.8a2.57,2.57,0,0,1,2.57,2.57V138a2.57,2.57,0,0,1-2.56,2.57h0A2.56,2.56,0,0,1,96.35,138v-3.72a1.13,1.13,0,0,0,0-.18,1.14,1.14,0,0,0,0-.26,0,0,0,0,1,0,0v-3.61A2.57,2.57,0,0,1,98.92,127.58Zm10.38-112h-13V10.47h13ZM95.13,22.88l-4.6-4.6h9.2Zm5.12-17.64a2.57,2.57,0,0,1,5.14,0V7.81h-5.14ZM88.66,20.17l5.53,5.53a1.33,1.33,0,0,0,1.88,0l7.43-7.42h4L95.13,30.68l-6.47-6.47ZM112,13.85v-4l5.26-5.26v4Zm4,8.34h5.14v5.14H116ZM122.45,30a1.34,1.34,0,0,0,1.34-1.34v-7.8a1.33,1.33,0,0,0-1.34-1.33h-2.57V12.36l5.54,5.54a0,0,0,0,1,0,0L131,23.42h-4.59a1.34,1.34,0,0,0,0,2.67H131l-5.53,5.53a1.33,1.33,0,1,0,1.88,1.88L132.83,28v4l-6.48,6.48L119.88,32V30Zm-5.23,9.82-6.47,6.48-6.48-6.48v-4l5.53,5.54a1.4,1.4,0,0,0,.44.29,1.45,1.45,0,0,0,.51.1h0a1.33,1.33,0,0,0,.94-.39l5.53-5.54ZM96.35,56.53l7.15-7.15a1.34,1.34,0,0,0,.77-1.2V43.59l4.53,4.53L96.35,60.57Zm5.26-9-5.26,5.25V48.85l5.26-5.26ZM65.15,87.69a1.35,1.35,0,0,0,0-.93,6.48,6.48,0,0,1,6.38-6h.19a6.46,6.46,0,0,1,3.43,1l-9,9A6.49,6.49,0,0,1,65.15,87.69Zm15.7-4.22A2.57,2.57,0,1,1,83.42,86,2.57,2.57,0,0,1,80.85,83.47Zm15.22-5a1.33,1.33,0,0,0-1.88,0L88.6,84.05a5.42,5.42,0,0,0,.06-.58,5.22,5.22,0,0,0-.84-2.82,1.61,1.61,0,0,0,.45-.3l6-6a9.15,9.15,0,0,0,5.93,5.92l-6,6a1.25,1.25,0,0,0-.3.49A5.15,5.15,0,0,0,91.23,86a5.5,5.5,0,0,0-.91.09l5.75-5.76A1.33,1.33,0,0,0,96.07,78.46Zm6.87-13.33a6.48,6.48,0,1,1-6.48,6.47,6.38,6.38,0,0,1,1.06-3.53L102,72.54a1.32,1.32,0,0,0,.94.39,1.33,1.33,0,0,0,.94-.39l2.76-2.76a1.33,1.33,0,0,0-1.88-1.88l-1.82,1.82L99.4,66.18A6.49,6.49,0,0,1,102.94,65.13ZM88.66,91.24A2.57,2.57,0,1,1,92,93.69H90.49A2.56,2.56,0,0,1,88.66,91.24Zm-.78,5.11h2.24a5.11,5.11,0,0,0,1.11.13,4.5,4.5,0,0,0,.63-.07l-5.09,5.09h-4ZM56,98.85a3.72,3.72,0,0,1,3.55,2.64h-7.1A3.74,3.74,0,0,1,56,98.85Zm-6.33,5.3H62.32a6.47,6.47,0,0,1-12.67,0Zm1.74,12.95,5.17-5.17a9.14,9.14,0,0,0,8.15-6.41l3.78,3.78h-.68a1.34,1.34,0,1,0,0,2.67h.56l-5.13,5.13Zm11.12,17.55a1.31,1.31,0,0,0,1.16.72h.13a6.47,6.47,0,0,1,6.33,6.05l-7.28,7.29a1.33,1.33,0,0,0,1.88,1.88l5.53-5.53v4l-7.41,7.42a1.26,1.26,0,0,0-.29.43,1.29,1.29,0,0,0,0,1,1.34,1.34,0,0,0,.72.72,1.29,1.29,0,0,0,.51.1H79.4a1.25,1.25,0,0,0,.51-.1,1.6,1.6,0,0,0,.44-.29l5.53-5.53v4l-7,7H64.34L59.2,158.8h.69a1.33,1.33,0,0,0,0-2.66H57.32v-5.26a9.14,9.14,0,0,0,7.8-9,1.24,1.24,0,0,0-.1-.5,1.35,1.35,0,0,0-.29-.44l-7.42-7.41v-4ZM78.46,150.6a1.25,1.25,0,0,0,.94.39h0a1.33,1.33,0,0,0,.94-.39l5.54-5.53v4l-6.48,6.47-6.47-6.47v-4ZM67,156.14l3.25-3.26v3.26Zm5.92-3.26,3.26,3.26H72.93ZM39.82,163.94h-4l5.14-5.14h4Zm9.69-6.47a1.45,1.45,0,0,0-.1-.51,1.32,1.32,0,0,0-.73-.72,1.24,1.24,0,0,0-.5-.1H33.89V151H48.18a1.33,1.33,0,1,0,0-2.66H33.89v-5.14H47a9.17,9.17,0,0,0,7.7,7.7v5.25H52.08a1.33,1.33,0,1,0,0,2.66h.69l-3.26,3.26Zm-39-7.81a6.48,6.48,0,0,1,5.15-6.33V156A6.5,6.5,0,0,1,10.47,149.66Zm14.28-6.47h6.48v1.24H18.28v-1.24Zm-6.47,3.9h13v9H18.28Zm29.9-11.71h0a1.33,1.33,0,0,0,.94-.39l5.53-5.53v4L48.18,140,41.7,133.5v-4L47.23,135a1.25,1.25,0,0,0,.44.29A1.29,1.29,0,0,0,48.18,135.38Zm7.8,13a6.48,6.48,0,0,1-6.33-5.14H62.32A6.49,6.49,0,0,1,56,148.33Zm-4.59-7.81,3.26-3.26v3.26Zm5.92,0v-3.26l3.26,3.26ZM41.7,137.26,45,140.52H41.7ZM39,140.52H35.78L39,137.26Zm-10.39-2.77,1.6,2.77H27.06ZM7.78,143.19h2.73a9.22,9.22,0,0,0-1.37,1.74A9.16,9.16,0,0,0,7.78,143.19Zm1.36,11.2a8.89,8.89,0,0,0,1.71,2.05,5.39,5.39,0,0,0-1.71-.3,5.33,5.33,0,0,0-1.7.3A8.84,8.84,0,0,0,9.14,154.39Zm-2.57,7a2.57,2.57,0,0,1,5.14,0v2.57H6.57Zm9,10.38H2.67v-5.14h13Zm13-11.71a5.23,5.23,0,0,0-3.91,1.78,5.19,5.19,0,0,0-8.94,2.12H14.38v-2.57A5.22,5.22,0,0,0,13,157.91a9.08,9.08,0,0,0,3.9.89H37.15l-3.94,3.94A5.21,5.21,0,0,0,28.66,160Zm5.23,6.57H39v5.14H33.89Zm7.81,3.26v-4l5.14-5.15v4Zm44.56-5.53h0l-3,2.93-2-2,5.92-5.93,2,2.05ZM112,158.8H121v12.95H112Zm18.19,12.95a2.57,2.57,0,1,1,2.57-2.57A2.57,2.57,0,0,1,130.15,171.75Zm7.8,0a2.57,2.57,0,1,1,2.57-2.57A2.58,2.58,0,0,1,138,171.75Zm2.57-12.95v5.14H128.4L131,158.8Zm-15.61,4.14v8.81h-1.24v-8.81ZM123,151l-5.14,5.14H95.57l-7-7v-4l5.53,5.53a1.3,1.3,0,0,0,.44.29,1.25,1.25,0,0,0,.51.1h28Zm-45-9.15a1.34,1.34,0,0,0,1.33,1.34H84l-4.59,4.59-6.61-6.62a9.15,9.15,0,0,0-8.42-8.42l-6.5-6.5,6.86-6.86,7.56-7.56a1.35,1.35,0,0,0,.65-.68,1.33,1.33,0,0,0-.29-1.45l-6.86-6.86,4.59-4.59v4.59a1.34,1.34,0,0,0,1.33,1.33h6.48V110L63.26,124.89a1.3,1.3,0,0,0-.45,2.23l0,.06a1.33,1.33,0,0,0,.94.39,1.25,1.25,0,0,0,.42-.08A14.39,14.39,0,0,1,78.07,141.85Zm2.78-35.12v-2.57H86v5.14H80.85Zm7.81.69v-4l5.14-5.14v4ZM96.4,91.87a4.34,4.34,0,0,0,.06-.63,5.21,5.21,0,0,0-.82-2.79,1.26,1.26,0,0,0,.43-.29l7.45-7.45a9.14,9.14,0,0,0,8.53-8.53l7.44-7.44a1.31,1.31,0,0,0,.38-1s0-.07,0-.1v-7.3l4.84,7.24L109.8,78.47Zm31.29-42.36H131l-3.26,3.26Zm0,7.81h5.14v5.14h-5.14Zm7.81,3.26v-4l5.14-5.14v4Zm3.26-11.07-5.15,5.15h-4l5.14-5.15ZM125,48.73V59.21l-5.37-8a1.33,1.33,0,0,0-2.44.74v8.47l-5.53-5.53a1.33,1.33,0,0,0-1.45-.29,1.39,1.39,0,0,0-.63.54l-3.83,3.83a1.34,1.34,0,0,0,1,2.28,1.33,1.33,0,0,0,.94-.39l1.74-1.75v4.53a1.34,1.34,0,0,0,2.67,0V59l4.68,4.68-5.12,5.12a9.13,9.13,0,0,0-17.73,1.45H82.74l5.53-5.53a1.33,1.33,0,0,0,.27-1.47V56.49l5.37,8c0,.06.09.1.13.15s0,0,0,0h0a1.42,1.42,0,0,0,.38.26l.09,0a1.34,1.34,0,0,0,.45.09,1.21,1.21,0,0,0,.38-.06s0,0,.06,0l.15-.07a1.67,1.67,0,0,0,.28-.18l.07,0,15.36-15.36a1.51,1.51,0,0,0,.37-.25l5.53-5.53v4.59a1.33,1.33,0,0,0,2.66,0V43.59Z"/><path d="M118.44,160.37h-3.91a1,1,0,1,0,0,2h3.91a1,1,0,0,0,0-2Z"/><path d="M114.53,166.28h3.91a1,1,0,1,0,0-2h-3.91a1,1,0,0,0,0,2Z"/><path d="M118.44,168.18h-3.91a1,1,0,0,0,0,2h3.91a1,1,0,0,0,0-2Z"/><path d="M40.37,35.47h-3.9a1,1,0,1,0,0,2h3.9a1,1,0,1,0,0-2Z"/><path d="M40.37,39.37h-3.9a1,1,0,0,0,0,2h3.9a1,1,0,0,0,0-2Z"/><path d="M40.37,43.27h-3.9a1,1,0,0,0,0,2h3.9a1,1,0,0,0,0-2Z"/><path d="M77,67.74a1.34,1.34,0,0,0-.39-.95l-3.94-3.94a1.37,1.37,0,0,0-1.88,0L63,70.66a1.33,1.33,0,0,0,0,1.88l3.87,3.87a1.34,1.34,0,0,0,1.88,0l3-3,4.74,4.69a1.31,1.31,0,0,0,.93.38,1.33,1.33,0,0,0,.94-2.28L73.61,71.6l3-2.92A1.34,1.34,0,0,0,77,67.74Zm-6.22,2.92h0l-3,2.93-2-2,5.92-5.92,2,2Z"/></g></g></svg>