<svg xmlns="http://www.w3.org/2000/svg" viewBox="0 0 221.47 30.33"><defs><style>.cls-1{fill:#1a1311;}</style></defs><g id="レイヤー_2" data-name="レイヤー 2"><g id="レイヤー_4" data-name="レイヤー 4"><path class="cls-1" d="M6.67,24.89H19.56V28.7H0L13.19,5.64h-11V1.83h17.7Z"/><path class="cls-1" d="M60.09,15.14a13.19,13.19,0,0,1,4.16-9.75,13.71,13.71,0,0,1,10-4.07,13.45,13.45,0,0,1,9.85,4.11,13.47,13.47,0,0,1,4.12,9.87A13.21,13.21,0,0,1,84,25.13a14.21,14.21,0,0,1-19.39.45A13.2,13.2,0,0,1,60.09,15.14Zm4.09,0a9.75,9.75,0,0,0,3,7.33,9.92,9.92,0,0,0,14-.05,9.91,9.91,0,0,0,2.91-7.21,9.86,9.86,0,0,0-2.87-7.2,9.48,9.48,0,0,0-7.07-2.93,9.58,9.58,0,0,0-7.08,2.93A9.66,9.66,0,0,0,64.18,15.19Z"/><path class="cls-1" d="M97.33,1.83V24.89h7.9V28.7h-12V1.83Z"/><path class="cls-1" d="M109.08,28.7V1.83h5.64a20.29,20.29,0,0,1,6.4.8,12,12,0,0,1,4.58,2.66,12.86,12.86,0,0,1,4.16,10A13.06,13.06,0,0,1,121,28a20.73,20.73,0,0,1-6.32.75Zm4.06-3.81H115a15.28,15.28,0,0,0,4.54-.58,9.2,9.2,0,0,0,6.27-9,9.37,9.37,0,0,0-3-7.17Q120.16,5.65,115,5.64h-1.82Z"/><path class="cls-1" d="M139,1.83V28.7h-4V1.83Z"/><path class="cls-1" d="M145.47,28.7V0l19.6,20.5V1.83h4.05v28.5L149.52,9.88V28.7Z"/><path class="cls-1" d="M187.9,14.71h12.58v.88a18.51,18.51,0,0,1-.71,5.36,11.49,11.49,0,0,1-2.35,4,12.18,12.18,0,0,1-9.52,4.21,13.1,13.1,0,0,1-9.66-4.07,13.51,13.51,0,0,1-4-9.82,13.48,13.48,0,0,1,4.09-9.92,14.18,14.18,0,0,1,15.84-2.8,16.91,16.91,0,0,1,5.13,4.18l-2.89,2.77q-3.3-4.41-8.06-4.41a9.6,9.6,0,0,0-7.15,3,9.77,9.77,0,0,0-2.89,7.23,9.51,9.51,0,0,0,3.22,7.4,9.6,9.6,0,0,0,6.53,2.7,8.07,8.07,0,0,0,5.37-2,7.21,7.21,0,0,0,2.67-4.87H187.9Z"/><path class="cls-1" d="M220.77,5.83l-3.29,2a5.61,5.61,0,0,0-1.76-2.09,4.65,4.65,0,0,0-5,.4,3,3,0,0,0-1.12,2.37c0,1.31,1,2.36,2.93,3.17l2.68,1.09A11.42,11.42,0,0,1,220,16a7.28,7.28,0,0,1,1.52,4.67A8.24,8.24,0,0,1,219,26.75a8.5,8.5,0,0,1-6.18,2.43A8.28,8.28,0,0,1,207,27.11a9.5,9.5,0,0,1-2.8-5.83l4.11-.9a6.94,6.94,0,0,0,1,3.27,4.64,4.64,0,0,0,6.81.47,4.79,4.79,0,0,0,1-4.66,3.61,3.61,0,0,0-.68-1.2,5.56,5.56,0,0,0-1.19-1,11.65,11.65,0,0,0-1.74-.92L211,15.24q-5.52-2.33-5.52-6.82a6.47,6.47,0,0,1,2.31-5.06,8.38,8.38,0,0,1,5.76-2C216.61,1.31,219,2.81,220.77,5.83Z"/><polygon class="cls-1" points="50.94 1.83 50.94 13.36 39.35 13.36 39.35 1.83 35.29 1.83 35.29 28.7 39.35 28.7 39.35 17.17 50.94 17.17 50.94 28.7 54.99 28.7 54.99 1.83 50.94 1.83"/></g></g></svg>