<svg xmlns="http://www.w3.org/2000/svg" viewBox="0 0 97.34 143.41"><defs><style>.cls-1{fill:#fff;}</style></defs><g id="レイヤー_2" data-name="レイヤー 2"><g id="レイヤー_4" data-name="レイヤー 4"><path class="cls-1" d="M2.93,141H8.6v1.67H0l5.8-10.13H1v-1.68H8.73Z"/><path class="cls-1" d="M26.41,136.73a5.77,5.77,0,0,1,1.83-4.28,6,6,0,0,1,4.37-1.79,6.2,6.2,0,0,1,6.15,6.14,5.78,5.78,0,0,1-1.83,4.32,6.22,6.22,0,0,1-8.52.2A5.8,5.8,0,0,1,26.41,136.73Zm1.8,0A4.3,4.3,0,0,0,29.52,140a4.36,4.36,0,0,0,6.16,0,4.58,4.58,0,0,0,0-6.33,4.42,4.42,0,0,0-6.22,0A4.25,4.25,0,0,0,28.21,136.76Z"/><path class="cls-1" d="M42.78,130.88V141h3.47v1.67H41V130.88Z"/><path class="cls-1" d="M47.94,142.69V130.88h2.48a9.09,9.09,0,0,1,2.81.35,5.27,5.27,0,0,1,2,1.18,5.67,5.67,0,0,1,1.82,4.38,5.59,5.59,0,0,1-1.9,4.4,5.67,5.67,0,0,1-2,1.17,9.14,9.14,0,0,1-2.78.33ZM49.72,141h.81a6.58,6.58,0,0,0,2-.26,4,4,0,0,0,2.76-4,4.11,4.11,0,0,0-1.3-3.15,4.92,4.92,0,0,0-3.45-1.08h-.81Z"/><path class="cls-1" d="M61.1,130.88v11.81H59.31V130.88Z"/><path class="cls-1" d="M63.93,142.69V130.08l8.62,9v-8.21h1.78v12.53l-8.61-9v8.27Z"/><path class="cls-1" d="M82.58,136.54h5.53v.39a8,8,0,0,1-.31,2.36,5.16,5.16,0,0,1-1,1.77,5.35,5.35,0,0,1-4.19,1.85,5.71,5.71,0,0,1-4.24-1.79,6.15,6.15,0,0,1,4.4-10.47,6,6,0,0,1,2.59.57,7.51,7.51,0,0,1,2.25,1.84l-1.27,1.21a4.29,4.29,0,0,0-3.54-1.93,4.23,4.23,0,0,0-3.14,1.29,4.31,4.31,0,0,0-1.27,3.18,4.18,4.18,0,0,0,1.41,3.25,4.25,4.25,0,0,0,2.87,1.19,3.59,3.59,0,0,0,2.37-.89,3.23,3.23,0,0,0,1.17-2.14h-3.6Z"/><path class="cls-1" d="M97,132.64l-1.45.86a2.41,2.41,0,0,0-.77-.92,1.81,1.81,0,0,0-1-.24,1.84,1.84,0,0,0-1.23.42,1.31,1.31,0,0,0-.49,1c0,.57.43,1,1.29,1.39l1.18.48a5,5,0,0,1,2.1,1.42,3.22,3.22,0,0,1,.67,2,3.64,3.64,0,0,1-1.09,2.7,3.74,3.74,0,0,1-2.72,1.07A3.68,3.68,0,0,1,91,142a4.28,4.28,0,0,1-1.23-2.57l1.81-.39a2.94,2.94,0,0,0,.43,1.43,1.84,1.84,0,0,0,1.6.77,1.88,1.88,0,0,0,1.39-.56,2,2,0,0,0,.55-1.41,1.91,1.91,0,0,0-.1-.64,1.44,1.44,0,0,0-.3-.52,2.34,2.34,0,0,0-.52-.45,5.3,5.3,0,0,0-.76-.41l-1.14-.47q-2.43-1-2.43-3a2.82,2.82,0,0,1,1-2.22,3.64,3.64,0,0,1,2.53-.91A3.55,3.55,0,0,1,97,132.64Z"/><polygon class="cls-1" points="22.39 130.88 22.39 135.95 17.29 135.95 17.29 130.88 15.51 130.88 15.51 142.69 17.29 142.69 17.29 137.63 22.39 137.63 22.39 142.69 24.17 142.69 24.17 130.88 22.39 130.88"/><path class="cls-1" d="M53.28,1.53v0h0a.92.92,0,0,0,.63.26H64.54a.91.91,0,0,0,0-1.81H53.93a.91.91,0,0,0-.62.25l0,0L53.18.4a.61.61,0,0,0-.07.14v0A1.15,1.15,0,0,0,53,.73a1.1,1.1,0,0,0,0,.18.81.81,0,0,0,.08.34A.9.9,0,0,0,53.28,1.53Z"/><path class="cls-1" d="M85.19,48l-2.66,2.65a.91.91,0,0,0,0,1.28.9.9,0,0,0,.64.27.87.87,0,0,0,.64-.27l2.66-2.65A.91.91,0,0,0,85.19,48Z"/><path class="cls-1" d="M81.28,53.43l-.12-.14a1,1,0,0,0-1.28,0,1,1,0,0,0-.26.65c0,.06,0,.11,0,.17l.06.17a.8.8,0,0,0,.08.16,1.34,1.34,0,0,0,.11.14l.14.11.16.08.16,0,.18,0a.93.93,0,0,0,.64-.26l.12-.14a.8.8,0,0,0,.08-.16.84.84,0,0,0,0-.17,1,1,0,0,0,0-.17,1.1,1.1,0,0,0,0-.18.84.84,0,0,0,0-.17A.8.8,0,0,0,81.28,53.43Z"/><path class="cls-1" d="M37.46,53.3l-5.3,5.3a.91.91,0,0,0,0,1.28.92.92,0,0,0,1.28,0l5.3-5.3a.91.91,0,0,0-1.28-1.28Z"/><path class="cls-1" d="M54.57,79.8a.91.91,0,0,0-1.28,0l-2.65,2.65a.91.91,0,0,0,0,1.28.89.89,0,0,0,1.28,0l2.65-2.65A.89.89,0,0,0,54.57,79.8Z"/><path class="cls-1" d="M45.3,27.92l.12.14a.45.45,0,0,0,.13.11.65.65,0,0,0,.16.09l.17,0,.18,0,.17,0,.17,0a.51.51,0,0,0,.16-.09.45.45,0,0,0,.13-.11.85.85,0,0,0,.27-.64.47.47,0,0,0,0-.17.48.48,0,0,0,0-.17.8.8,0,0,0-.08-.16.75.75,0,0,0-.12-.14.92.92,0,0,0-1.27,0l-.12.14a.8.8,0,0,0-.08.16.84.84,0,0,0,0,.17.88.88,0,0,0,0,.17,1.1,1.1,0,0,0,0,.18.84.84,0,0,0,0,.17A.71.71,0,0,0,45.3,27.92Z"/><path class="cls-1" d="M51.36,28.33a.91.91,0,0,0,0-1.81H48.71a.91.91,0,1,0,0,1.81Z"/><path class="cls-1" d="M51.36,21.22h-5.3a.91.91,0,1,0,0,1.81h5.3a.91.91,0,0,0,0-1.81Z"/><path class="cls-1" d="M53.26,33.23a.69.69,0,0,0,.11.13.89.89,0,0,0,1.28,0,.69.69,0,0,0,.11-.13l.08-.16a.85.85,0,0,0,.06-.17,1,1,0,0,0,0-.17.93.93,0,0,0-.27-.65,1,1,0,0,0-1.28,0,.92.92,0,0,0-.26.65,1,1,0,0,0,0,.17.84.84,0,0,0,.05.17A1.29,1.29,0,0,0,53.26,33.23Z"/><path class="cls-1" d="M52.25,32.55c0-.06,0-.12,0-.17l-.09-.16a1.34,1.34,0,0,0-.11-.14.82.82,0,0,0-.25-.16l-.07,0a1,1,0,0,0-.3-.05h-8a.91.91,0,1,0,0,1.81h8a.84.84,0,0,0,.35-.07.9.9,0,0,0,.48-.48.84.84,0,0,0,.07-.35A1.09,1.09,0,0,0,52.25,32.55Z"/><path class="cls-1" d="M46.73,5.7l-.11-.13a.93.93,0,0,0-1.28,0l-.11.13a.65.65,0,0,0-.09.16,1,1,0,0,0-.07.35,1,1,0,0,0,0,.17,1.21,1.21,0,0,0,0,.18.6.6,0,0,0,.09.15,1.34,1.34,0,0,0,.11.14.9.9,0,0,0,.64.26.92.92,0,0,0,.64-.26,1.34,1.34,0,0,0,.11-.14,1.09,1.09,0,0,0,.08-.15l.06-.18c0-.06,0-.11,0-.17s0-.12,0-.18l-.06-.17Z"/><path class="cls-1" d="M51.28,5.3H48.63a.91.91,0,1,0,0,1.81h2.65a.91.91,0,1,0,0-1.81Z"/><path class="cls-1" d="M46,1.81h5.3a.91.91,0,1,0,0-1.81H46a.91.91,0,1,0,0,1.81Z"/><path class="cls-1" d="M43.33,1.81l.17,0,.17-.05.16-.08A.69.69,0,0,0,44,1.55a.89.89,0,0,0,.27-.64.55.55,0,0,0,0-.18.48.48,0,0,0-.05-.17.53.53,0,0,0-.08-.15A.53.53,0,0,0,44,.27a.92.92,0,0,0-1.27,0,.49.49,0,0,0-.11.14.38.38,0,0,0-.09.15.84.84,0,0,0-.05.17,1.1,1.1,0,0,0,0,.18.93.93,0,0,0,.27.64A.94.94,0,0,0,43.33,1.81Z"/><path class="cls-1" d="M56.43,90.16l-.17,0-.15.09-.14.11a.89.89,0,0,0,0,1.28.89.89,0,0,0,.64.27.91.91,0,0,0,.64-.27.9.9,0,0,0,.26-.64.94.94,0,0,0-.26-.64A.92.92,0,0,0,56.43,90.16Z"/><path class="cls-1" d="M61.91,90.14H59.26a.91.91,0,1,0,0,1.81h2.65a.91.91,0,1,0,0-1.81Z"/><path class="cls-1" d="M61.91,84.84h-5.3a.91.91,0,1,0,0,1.81h5.3a.91.91,0,1,0,0-1.81Z"/><path class="cls-1" d="M53.61,86.58a.81.81,0,0,0,.35.07.89.89,0,0,0,.64-.27.86.86,0,0,0,.26-.63.94.94,0,0,0-.26-.64.92.92,0,0,0-.82-.25l-.17,0a.51.51,0,0,0-.16.09.63.63,0,0,0-.13.11.91.91,0,0,0-.27.64.87.87,0,0,0,.27.63A.72.72,0,0,0,53.61,86.58Z"/><path class="cls-1" d="M64.54,113.17a.92.92,0,0,0,.64-.27.76.76,0,0,0,.11-.14.8.8,0,0,0,.08-.16.43.43,0,0,0,0-.16.82.82,0,0,0,0-.36,1.54,1.54,0,0,0,0-.17.71.71,0,0,0-.08-.15.76.76,0,0,0-.11-.14l-.14-.11a.83.83,0,0,0-.16-.09l-.17,0a1,1,0,0,0-.35,0l-.17,0a1.19,1.19,0,0,0-.15.09l-.14.11a.49.49,0,0,0-.11.14.46.46,0,0,0-.09.15,1.54,1.54,0,0,0-.05.17,1.1,1.1,0,0,0,0,.18.91.91,0,0,0,.27.64L64,113a1.19,1.19,0,0,0,.15.09l.17.05Z"/><path class="cls-1" d="M67.19,113.16a.89.89,0,0,0,.9-.9,1.09,1.09,0,0,0,0-.18l-.06-.17a.71.71,0,0,0-.08-.15.76.76,0,0,0-.11-.14.93.93,0,0,0-1.28,0,.91.91,0,0,0-.27.64.87.87,0,0,0,.27.64.7.7,0,0,0,.29.19A.84.84,0,0,0,67.19,113.16Z"/><path class="cls-1" d="M72.49,111.35H69.84a.91.91,0,1,0,0,1.81h2.65a.91.91,0,1,0,0-1.81Z"/><path class="cls-1" d="M73.36,117.76a1.42,1.42,0,0,0,0-.2.94.94,0,0,0-.23-.59s0,0,0,0l-.14-.11-.13-.07,0,0-.16,0a.34.34,0,0,1-.1,0h-8a.91.91,0,1,0,0,1.81h7.95a.94.94,0,0,0,.3-.06h0a.91.91,0,0,0,.16-.11.6.6,0,0,0,.13-.09.64.64,0,0,0,.13-.19.86.86,0,0,0,.07-.1A.8.8,0,0,1,73.36,117.76Z"/><path class="cls-1" d="M22.12,63.63a.91.91,0,0,0-.91.9v5.31a.9.9,0,0,0,.56.83.84.84,0,0,0,.35.07.93.93,0,0,0,.64-.26l5.3-5.3a.91.91,0,0,0,0-1.28.89.89,0,0,0-1.28,0L23,67.65V64.53A.9.9,0,0,0,22.12,63.63Z"/><path class="cls-1" d="M.91,7.11a.86.86,0,0,0,.63-.26.89.89,0,0,0,0-1.28A.9.9,0,1,0,.27,6.85.88.88,0,0,0,.91,7.11Z"/><path class="cls-1" d="M3.05,7,3.21,7a.55.55,0,0,0,.17,0,.55.55,0,0,0,.18,0,.5.5,0,0,0,.17,0,.61.61,0,0,0,.18,0L4.06,7l.14-.11a.92.92,0,0,0,0-1.28l-.14-.11a.6.6,0,0,0-.15-.09l-.18,0a1,1,0,0,0-.35,0l-.17,0a.51.51,0,0,0-.16.09l-.13.11a.89.89,0,0,0,0,1.28Z"/><path class="cls-1" d="M8.86,7.11a.91.91,0,1,0,0-1.81H6.21a.91.91,0,1,0,0,1.81Z"/><path class="cls-1" d="M3.56,1.81h5.3a.91.91,0,0,0,.91-.9A.91.91,0,0,0,8.86,0H3.56a.91.91,0,0,0-.91.91A.91.91,0,0,0,3.56,1.81Z"/><path class="cls-1" d="M.91,1.81a.9.9,0,0,0,.63-.26A.89.89,0,0,0,1.81.9a.5.5,0,0,0,0-.17A.48.48,0,0,0,1.74.56.8.8,0,0,0,1.66.4.49.49,0,0,0,1.54.27.92.92,0,0,0,.27.27L.15.4S.1.5.07.56A.84.84,0,0,0,0,.73.5.5,0,0,0,0,.9a.93.93,0,0,0,.27.65A.93.93,0,0,0,.91,1.81Z"/><path class="cls-1" d="M8.86,12.42a1,1,0,0,0,.35-.07,1.25,1.25,0,0,0,.3-.21.64.64,0,0,0,.1-.13.71.71,0,0,0,.08-.15h0s0-.1.05-.16a1.1,1.1,0,0,0,0-.18,1,1,0,0,0-.07-.35,1,1,0,0,0-.2-.29h0l0,0a.89.89,0,0,0-.61-.25H.91a.91.91,0,0,0,0,1.82H4L.27,16.17a.89.89,0,0,0,0,1.28.89.89,0,0,0,1.28,0L5.3,13.7v2.74l-5,5a.89.89,0,0,0,0,1.28.91.91,0,0,0,1.28,0L5.3,19v2.74l-5,5a.89.89,0,0,0,0,1.28.91.91,0,0,0,1.28,0L5.3,24.3V27l-5,5a.89.89,0,0,0,0,1.28.91.91,0,0,0,1.28,0L5.3,29.6v3.12a.91.91,0,1,0,1.81,0V29.6l3.76,3.76a.93.93,0,0,0,.3.2,1,1,0,0,0,.34.07H32.73a1,1,0,0,0,.34-.06,1,1,0,0,0,.29-.2l2-2,2,2a.91.91,0,1,0,1.28-1.28l-2-2,2.25-2.24a3.54,3.54,0,0,0,1.78.49,3.6,3.6,0,0,0,1.89-.55h0a.71.71,0,0,0,.08.15.53.53,0,0,0,.12.14.87.87,0,0,0,.63.27.93.93,0,0,0,.65-.27,1.71,1.71,0,0,0,.11-.14.71.71,0,0,0,.08-.15.84.84,0,0,0,0-.17,1.1,1.1,0,0,0,0-.18.88.88,0,0,0,0-.17.84.84,0,0,0,0-.17.8.8,0,0,0-.08-.16l-.11-.14a.88.88,0,0,0-.34-.19,3.46,3.46,0,0,0,0-3.63.86.86,0,0,0,.33-.2l.11-.13.08-.16a1.54,1.54,0,0,0,0-.17.82.82,0,0,0,0-.36,1.54,1.54,0,0,0,0-.17h0V17.23a3.48,3.48,0,0,0,1.75.48,3.53,3.53,0,0,0,1.73-.47l2.9,2.91a.92.92,0,0,0,1.28,0,.91.91,0,0,0,0-1.28L49,16a3.47,3.47,0,0,0,.05-3.57h2.22a1,1,0,0,0,.35-.07,1,1,0,0,0,.49-.49.91.91,0,0,0,0-.7A1.88,1.88,0,0,0,52,11s0-.08-.08-.11l-.08,0a.84.84,0,0,0-.56-.21H43.7L38.93,5.83V3.09l3.76,3.76a.78.78,0,0,0,.15.1A1.1,1.1,0,0,0,43,7a.84.84,0,0,0,.35.07A.83.83,0,0,0,43.67,7s.07,0,.11-.07A1.22,1.22,0,0,0,44,6.85h0a.69.69,0,0,0,.11-.13,1.09,1.09,0,0,0,.08-.15.61.61,0,0,0,.05-.18.47.47,0,0,0,0-.17h0s0,0,0-.07a.82.82,0,0,0-.06-.27.54.54,0,0,0-.1-.16A.67.67,0,0,0,44,5.57L38.66.27A.88.88,0,0,0,38,0a.89.89,0,0,0-.64.27l-5,5H23V1.81h9.7a.91.91,0,1,0,0-1.81H11.34l-.16,0a0,0,0,0,1,0,0h0L11,.15l0,0s0,0,0,0a.1.1,0,0,0-.05,0,.69.69,0,0,0-.11.13l-.08.14v0h0s0,0,0,0a.64.64,0,0,0,0,.07.43.43,0,0,0,0,0,.39.39,0,0,0,0,.15V11.51h0a.5.5,0,0,0,0,.17.3.3,0,0,0,0,.16h0v0a.54.54,0,0,0,.07.13.76.76,0,0,0,.11.14h0l.13.1.12.07,0,0,.16.05.17,0H25.23l-2.67,2.67a3.53,3.53,0,0,0-5.75-.62,3.52,3.52,0,0,0-5.74.62L8.39,12.42Zm2,10.34a.85.85,0,0,0,.3.19.8.8,0,0,0,.34.07h9.7v3.49H11.89L7.11,21.74V19ZM7.11,24.3l3.76,3.76a.77.77,0,0,0,.3.19.8.8,0,0,0,.34.07h9.7v3.5H11.89L7.11,27ZM23,23h6.15v8.8H23Zm8.8,8.8H31v-6h.84Zm1.81-12.35V17.19L38,12.79l4.4,4.4v4H33.63Zm-1.28-8.86H23V7.11h9.7A.84.84,0,0,0,33.07,7a.9.9,0,0,0,.26-.17l0,0,3.76-3.76V5.83ZM16.81,4.93,13.7,1.81h6.23ZM12.42,6.22h0V3.09l3.75,3.76a.91.91,0,0,0,1.28,0l3.76-3.76v7.52H12.42ZM40.68,26.51a1.75,1.75,0,1,1,1.74-1.74A1.74,1.74,0,0,1,40.68,26.51Zm7-12.36a1.75,1.75,0,1,1-1.82-1.73h.15A1.74,1.74,0,0,1,47.72,14.15Zm-5-2h0a.78.78,0,0,0,.24.16,3.58,3.58,0,0,0-.52,1.83,3.07,3.07,0,0,0,.06.53l-3.55-3.54V8.39Zm-12.62.27h2.65a1,1,0,0,0,.35-.07,1.07,1.07,0,0,0,.28-.19h0l3.76-3.76v2.75l-4.77,4.77h-4V12.42ZM26.51,13.7v3.11a.91.91,0,0,0,.91.91h4.4v4.4a.9.9,0,0,0,.9.9H37.6a3.42,3.42,0,0,0,0,3.53l-2.89,2.88-1.1,1.11V24.92a.91.91,0,0,0-.91-.9H31v-1.9a.91.91,0,0,0-.91-.91H27.79l-4.39-4.4Zm-7,1.37a1.74,1.74,0,0,1,1.74,1.74,1,1,0,0,0,.07.35.84.84,0,0,0,.2.29l3.75,3.76H17.72v-4.4A1.74,1.74,0,0,1,19.47,15.07Zm-5.31,0a1.74,1.74,0,0,1,1.75,1.74v4.4h-4L7.11,16.44V13.7l3.76,3.75a.88.88,0,0,0,.3.2,1,1,0,0,0,.34.07,1,1,0,0,0,.35-.07.91.91,0,0,0,.49-.49,1,1,0,0,0,.07-.35A1.74,1.74,0,0,1,14.16,15.07Z"/><path class="cls-1" d="M87.57,28.09v2.24a.91.91,0,1,0,1.81,0V28.09a.91.91,0,0,0-1.81,0Z"/><path class="cls-1" d="M90.22,28.09v2.24a.91.91,0,1,0,1.81,0V28.09a.91.91,0,0,0-1.81,0Z"/><path class="cls-1" d="M92.87,28.09v2.24a.91.91,0,1,0,1.81,0V28.09a.91.91,0,0,0-1.81,0Z"/><path class="cls-1" d="M97.07,10.87a.91.91,0,0,0-1.28,0L92,14.63V11.51a.91.91,0,0,0-1.81,0v3.12l-3.11-3.12L95.53,3.1V6.23a.91.91,0,0,0,1.81,0V.91a1.09,1.09,0,0,0-.07-.35.92.92,0,0,0-.49-.48A.84.84,0,0,0,96.43,0h-5.3a.91.91,0,1,0,0,1.81h3.12l-8.42,8.42-4.4-4.4V3.1l3.76,3.75a.87.87,0,0,0,.64.27.9.9,0,0,0,.64-.27.91.91,0,0,0,0-1.28L81.16.27A.91.91,0,0,0,80.52,0a.93.93,0,0,0-.64.26l-5,5H73.4V3.56a3.56,3.56,0,0,0-7.12,0V5.3H53.93a.9.9,0,0,0-.83.56.81.81,0,0,0,0,.7,1.1,1.1,0,0,0,.09.14.78.78,0,0,0,.1.15.47.47,0,0,0,.12.07.48.48,0,0,0,.17.12l.14,0a.78.78,0,0,0,.21,0h9.7v3.5h-9.7a.85.85,0,0,0-.57.22l-.07,0-.11.16a.91.91,0,0,0-.08.13.85.85,0,0,0-.08.35,1.1,1.1,0,0,0,0,.18,1,1,0,0,0,.06.16s0,0,0,0a.54.54,0,0,0,.07.13.69.69,0,0,0,.11.13.86.86,0,0,0,.29.21,1,1,0,0,0,.35.07h3.2l-3.76,3.76a.91.91,0,0,0,1.28,1.28l3.76-3.76v2.74l-5,5h0a.76.76,0,0,0-.11.14,1.19,1.19,0,0,0-.09.15h0a.75.75,0,0,0-.05.16.81.81,0,0,0,0,.16,1.13,1.13,0,0,0,.06.36,1,1,0,0,0,.49.49.92.92,0,0,0,1-.2L58.41,19v3.12a.91.91,0,1,0,1.81,0V19L64,22.76a.87.87,0,0,0,.64.27.9.9,0,0,0,.64-.27l10.6-10.6L79.62,8.4v4.86H77.87a.9.9,0,0,0-.9.91v5.3a.9.9,0,0,0,.9.9h1.75v1.38l-4.4,4.39-4-4,4.66-4.66a.91.91,0,0,0,0-1.28.89.89,0,0,0-1.28,0l-5.3,5.3h0L65.06,25.7a3.53,3.53,0,0,0-5.75-.62,3.51,3.51,0,0,0-2.65-1.21,3.55,3.55,0,0,0-3.55,3.55.88.88,0,0,0,.06.33,0,0,0,0,0,0,0,.54.54,0,0,0,.1.16s0,.1.09.13a.49.49,0,0,0,.14.11.54.54,0,0,0,.15.09h0l.17,0,.17,0h0a1.42,1.42,0,0,0,.2,0,.48.48,0,0,0,.34-.16l.1-.07s0,0,0,0a1,1,0,0,0,.16-.24,1,1,0,0,0,.07-.35h0a1.75,1.75,0,0,1,3.49,0v5.31a.91.91,0,0,0,1.81,0V27.42a1.75,1.75,0,0,1,3.49,0,.84.84,0,0,0,.07.35.91.91,0,0,0,.49.49.92.92,0,0,0,.69,0,1,1,0,0,0,.3-.2L69,24.31v2.74l-5,5a.75.75,0,0,0-.2.3.81.81,0,0,0-.15.46v7.49L60,34.88a.91.91,0,0,0-1.66.51v5.75l-3.76-3.76A.91.91,0,0,0,53,38v5.31a.91.91,0,0,0,1.81,0V40.21L58,43.37,53.37,48A.91.91,0,0,0,54,49.54h8.42L58.67,53.3a1,1,0,0,0-.21.35,3.46,3.46,0,0,0-1.8-.51,3.42,3.42,0,0,0-1.87.55.79.79,0,0,0-.22-.4.91.91,0,0,0-1.28,0l-.95,1A6.23,6.23,0,0,0,48.71,53h-5.3a.88.88,0,0,0-.64.27L32.16,63.9a.91.91,0,0,0,0,1.28.89.89,0,0,0,1.28,0L43.78,54.84h.47a6.21,6.21,0,0,0-1.81,4.07l-2.33,2.33a.91.91,0,0,0,0,1.28.89.89,0,0,0,.64.26.86.86,0,0,0,.64-.26l1.34-1.34A6.55,6.55,0,0,0,43.64,63l-1,.95a.89.89,0,0,0,0,1.28.92.92,0,0,0,.64.26.93.93,0,0,0,.64-.26l1.39-1.4a.48.48,0,0,0,.28-.28l7.26-7.26a.62.62,0,0,0,.17-.11,1.4,1.4,0,0,0,.1-.16h0a3.58,3.58,0,0,0,3.48,4.29,2.45,2.45,0,0,0,.39,0L53.37,63.9a.91.91,0,0,0,0,1.28.92.92,0,0,0,1.28,0l3.82-3.82a3.08,3.08,0,0,0-.06.61,3.6,3.6,0,0,0,.49,1.78,1.14,1.14,0,0,0-.23.15l-5,5h-4V65.45h1.75a.91.91,0,0,0,0-1.81h-5.3a.91.91,0,1,0,0,1.81h.46L43,68.93H42.3a4.34,4.34,0,0,0-3.81-3.57l.12-.06.13-.12a.89.89,0,0,0,0-1.28.69.69,0,0,0-.13-.11l-.16-.09-.17-.05a1,1,0,0,0-.35,0l-.17.05-.16.09-.14.11a.92.92,0,0,0,0,1.28l.14.12.1,0a4.35,4.35,0,0,0-4,3.58H32.67l-.24,0-.09,0a1.1,1.1,0,0,0-.26.18h0l-5.3,5.3a.83.83,0,0,0-.17.26,3.61,3.61,0,0,0-1.84-.52,3.56,3.56,0,0,0-3.27,2.15,6.16,6.16,0,0,0-4.69-2.15.9.9,0,0,0-.9.9v4.4h-4.4a.9.9,0,0,0-.9.9,6.18,6.18,0,0,0,1.83,4.4H11.6a.83.83,0,0,0-.53.12l0,0a.7.7,0,0,0-.16.1L4.74,91.22V88.66a.91.91,0,0,0-1.81,0V93.4a.9.9,0,0,0,.56.84.84.84,0,0,0,.35.07A.9.9,0,0,0,4.48,94l6.83-6.83,2.07,3.59a.91.91,0,0,0,1.57,0l2.41-4.18A6.2,6.2,0,0,0,23,80.86a3.43,3.43,0,0,0,3.5,0l2.9,2.91a.92.92,0,0,0,1.28,0,.91.91,0,0,0,0-1.28L27.8,79.62a3.46,3.46,0,0,0,.52-1.83A3.52,3.52,0,0,0,27.8,76a.83.83,0,0,0,.26-.17L31.82,72v3.12a.91.91,0,1,0,1.81,0v-.93a6.19,6.19,0,0,0,2.51,1.54l-4.06,4a.91.91,0,0,0,.64,1.55h8.42l-3.76,3.76h0l-4.66,4.66-4.66-4.66a.84.84,0,0,0-.29-.2.94.94,0,0,0-.7,0,.84.84,0,0,0-.29.2l-5.3,5.3a.89.89,0,0,0,0,1.28.91.91,0,0,0,1.28,0l3.75-3.76v2.74l-4.2,4.21L20.25,91.3a.91.91,0,0,0-1.57,0l-2.39,4.15H12.42v-4.4a.91.91,0,1,0-1.81,0v4.4H1.81v-8.8h4.4a.91.91,0,0,0,0-1.81H.91a.91.91,0,0,0-.91.91v10.6a.91.91,0,0,0,.91.91h0a4.39,4.39,0,0,1,4.38,4.39,4.4,4.4,0,0,1-4.39,4.4.91.91,0,1,0,0,1.81,6.17,6.17,0,0,0,2.65-.6,3.49,3.49,0,0,0-.91,2.35v1.74H.91a.91.91,0,0,0-.91.91v5.3a.91.91,0,0,0,.91.91h10.6a.91.91,0,0,0,.91-.91v-5.3a1.75,1.75,0,1,1,3.49,0v5.3a.91.91,0,1,0,1.81,0v-5.3a1.75,1.75,0,1,1,3.49,0v5.3a.91.91,0,0,0,.91.91h5.3a1,1,0,0,0,.35-.07,1,1,0,0,0,.29-.2l5.3-5.3,3.76-3.76v2.74l-5,5a.91.91,0,0,0,1.28,1.28l3.76-3.76v3.12a.91.91,0,1,0,1.81,0v-3.12l3.76,3.76a1,1,0,0,0,.29.2,1,1,0,0,0,.35.07h15.9a.91.91,0,1,0,0-1.81H43.7l-4.77-4.78v-2.74l3.76,3.76a.81.81,0,0,0,.29.19.84.84,0,0,0,.35.07H53.56l2.36,2.37a.93.93,0,0,0,.64.26.85.85,0,0,0,.63-.26l2-2,3.22,3.18a.89.89,0,0,0,.64.26.93.93,0,0,0,.64-.26.9.9,0,0,0,0-1.28l-3.2-3.17,2-2a.91.91,0,0,0,.27-.64.9.9,0,0,0-.26-.64l-2.41-2.41v-2.74l3.75,3.75h0l.14.11.15.08a.48.48,0,0,0,.17,0l.18,0h9.7v4.39h0v5.28h0a.84.84,0,0,0,.07.35.7.7,0,0,0,.15.23s0,0,0,.06,0,0,0,0a.89.89,0,0,0,.59.23H85.75a.89.89,0,0,0,.81-.53,3.49,3.49,0,0,0,4.49-.68,3.54,3.54,0,0,0,6.21-2.35,3.47,3.47,0,0,0-.53-1.83.92.92,0,0,0,.53-.82V107a.91.91,0,0,0-.91-.91H85.75a.91.91,0,1,0,0,1.81h1.18l-.61,1.22a.88.88,0,0,0-.57-.22H84V107a.9.9,0,0,0-.9-.91h-.47l3.49-3.49H96.35a.91.91,0,1,0,0-1.81h-19l3.49-3.49H96.35a.91.91,0,0,0,.91-.91V85.87a.91.91,0,0,0-1.81,0v9.58H92v-7a.91.91,0,0,0-1.81,0v7H86.65v-4.4a.9.9,0,0,0-.9-.91h-9.7V86.65h9.7a.91.91,0,0,0,0-1.81H75.14a.9.9,0,0,0-.9.91v9.7h-4a3.57,3.57,0,0,0,.47-1.75V88.4a3.56,3.56,0,0,0-3.55-3.56,3.48,3.48,0,0,0-1.81.52l-.06-.12-.12-.13a.63.63,0,0,0-.13-.11.65.65,0,0,0-.16-.09l-.17,0a1.09,1.09,0,0,0-.36,0l-.16,0a.51.51,0,0,0-.16.09.49.49,0,0,0-.14.11.69.69,0,0,0-.11.13.8.8,0,0,0-.08.16l-.06.17a1.09,1.09,0,0,0,0,.18.86.86,0,0,0,.26.63.7.7,0,0,0,.25.17,3.45,3.45,0,0,0-.54,1.85v5.3a3.53,3.53,0,0,0,.53,1.84l-.08,0s0,0,0,0l0,0a.89.89,0,0,0-.4.73.91.91,0,0,0,.91.91H78.26l-3.49,3.49H64.91l-3.49-3.49h.67l.16,0,0,0,.13-.06.14-.12s0,0,0,0a.88.88,0,0,0,.26-.62s0,0,0,0a.86.86,0,0,0,0-.16,1.42,1.42,0,0,0,0-.16l0,0a.83.83,0,0,0-.07-.13.76.76,0,0,0-.11-.14l-.13-.11-.14-.07h0a1,1,0,0,0-.16-.06.34.34,0,0,1-.1,0h-7.2A11.34,11.34,0,0,0,54,92a.89.89,0,0,0,.9-.9.94.94,0,0,0-.26-.64.92.92,0,0,0-.82-.25l-.17,0-.16.08-.13.12a1,1,0,0,0-.08.11,11.69,11.69,0,0,0-4-4.09l.06-.05a1,1,0,0,0,.2-.29,1,1,0,0,0,.07-.34,1.1,1.1,0,0,0,0-.18.85.85,0,0,0-.06-.17.8.8,0,0,0-.08-.16,1.34,1.34,0,0,0-.11-.14,1,1,0,0,0-.82-.24l-.17,0a.6.6,0,0,0-.15.09.71.71,0,0,0-.14.1l-.12.14-.08.16a.84.84,0,0,0,0,.17.34.34,0,0,1,0,.1,11.41,11.41,0,0,0-2.35-.7l8.92-8.92h5a.84.84,0,0,0,.35-.07,1,1,0,0,0,.29-.19l5.31-5.31a.9.9,0,0,0,.26-.64V65.1l5.12-2.56L69.28,63.9a.89.89,0,0,0,0,1.28.91.91,0,0,0,1.28,0l5.3-5.3A.91.91,0,0,0,76,58.71a.89.89,0,0,0-1.13-.28L69.2,61.24l6.66-6.66L86.2,44.24h4.93a1,1,0,0,0,.35-.07,1,1,0,0,0,.29-.2l5.3-5.3a.91.91,0,0,0,.27-.64v-5.3a1,1,0,0,0-.07-.35.94.94,0,0,0-.49-.49.84.84,0,0,0-.35-.07H86.2l-4.77-4.77V24.31l3.76,3.75a.87.87,0,0,0,.64.27.9.9,0,0,0,.64-.27v0l4.64-4.64,4.67,4.66a.88.88,0,0,0,.64.26.89.89,0,0,0,.64-.26.91.91,0,0,0,0-1.28l-5-5V19l3.76,3.76a.92.92,0,0,0,1.28,0,.91.91,0,0,0,0-1.28l-3.76-3.76h3.12a.91.91,0,1,0,0-1.81H93.31l3.76-3.76A.91.91,0,0,0,97.07,10.87ZM14.17,88.53l-1.09-1.88h2.17Zm2.64-3.69a4.41,4.41,0,0,1-4.3-3.49h4.3a.91.91,0,0,0,.91-.91v-4.3a4.4,4.4,0,0,1-.91,8.7Zm6.21-7a1.75,1.75,0,1,1,1.75,1.75A1.75,1.75,0,0,1,23,77.79ZM84.84,92v3.5H76.05V92Zm-17.65-5.3a1.75,1.75,0,0,1,1.74,1.75v5.3a1.75,1.75,0,0,1-1.73,1.75h0a1.76,1.76,0,0,1-1.74-1.75V91.17a.53.53,0,0,0,0-.12,1.1,1.1,0,0,0,0-.18h0V88.4A1.76,1.76,0,0,1,67.19,86.65Zm7-76h-8.8V7.11h8.8Zm-9.62,4.93-3.13-3.12h6.25Zm3.47-12a1.75,1.75,0,0,1,3.5,0V5.3h-3.5ZM60.22,13.7,64,17.46a.9.9,0,0,0,.64.26.93.93,0,0,0,.64-.26l5-5H73l-8.42,8.42-4.4-4.4ZM76.05,9.41V6.67L79.62,3.1V5.84Zm2.73,5.66h3.49v3.49H78.78Zm4.39,5.3a.9.9,0,0,0,.91-.9v-5.3a.91.91,0,0,0-.91-.91H81.43V8.4l3.76,3.76h0l3.74,3.75H85.83a.91.91,0,1,0,0,1.81h3.11l-3.75,3.76A.9.9,0,0,0,85.83,23a.93.93,0,0,0,.64-.26L90.22,19v2.74l-4.4,4.4-4.39-4.39V20.37Zm-3.55,6.68-4.4,4.4-4.4-4.4V24.31l3.76,3.75a.83.83,0,0,0,.3.2.8.8,0,0,0,.34.07h0a.9.9,0,0,0,.64-.27l3.76-3.75ZM65.44,38.4l4.86-4.86a.9.9,0,0,0,.52-.81V29.61l3.08,3.07-8.46,8.46ZM69,32.27l-3.57,3.57V33.18L69,29.61ZM44.25,59.56a.91.91,0,0,0,0-.63,4.41,4.41,0,0,1,4.34-4.09h.12a4.38,4.38,0,0,1,2.34.7l-6.12,6.11A4.42,4.42,0,0,1,44.25,59.56ZM54.92,56.7a1.75,1.75,0,1,1,1.74,1.74A1.74,1.74,0,0,1,54.92,56.7Zm10.34-3.41a.91.91,0,0,0-1.28,0l-3.8,3.8c0-.13,0-.26,0-.39a3.58,3.58,0,0,0-.57-1.92,1,1,0,0,0,.3-.2L64,50.52a6.24,6.24,0,0,0,4,4L64,58.6a.78.78,0,0,0-.21.33A3.47,3.47,0,0,0,62,58.42a3.08,3.08,0,0,0-.61.06l3.91-3.91A.91.91,0,0,0,65.26,53.29Zm4.66-9a4.4,4.4,0,1,1-3.68,2l3,3a.89.89,0,0,0,1.28,0l1.87-1.87a.91.91,0,0,0-1.28-1.28l-1.23,1.23L67.52,45A4.37,4.37,0,0,1,69.92,44.24ZM60.22,62a1.75,1.75,0,1,1,2.25,1.67h-1A1.74,1.74,0,0,1,60.22,62Zm-.53,3.48h1.52a3.82,3.82,0,0,0,.75.08c.15,0,.29,0,.43,0l-3.45,3.45H56.2ZM38,67.14a2.55,2.55,0,0,1,2.42,1.79H35.61A2.54,2.54,0,0,1,38,67.14Zm-4.3,3.6h8.61a4.4,4.4,0,0,1-8.61,0Zm1.19,8.8L38.42,76A6.24,6.24,0,0,0,44,71.67l2.56,2.57h-.46a.91.91,0,1,0,0,1.81h.38L43,79.54Zm7.55,11.92a.88.88,0,0,0,.79.49h.08a4.42,4.42,0,0,1,4.31,4.11l-5,5A.91.91,0,0,0,44,102.29l3.75-3.75v2.74l-5,5a.84.84,0,0,0-.2.29.92.92,0,0,0,0,.69.91.91,0,0,0,.49.49.84.84,0,0,0,.35.07h10.6a.84.84,0,0,0,.35-.07.81.81,0,0,0,.29-.19l3.76-3.76v2.74l-4.77,4.77H43.7l-3.49-3.49h.47a.91.91,0,0,0,0-1.81H38.93v-3.57a6.2,6.2,0,0,0,5.3-6.13.8.8,0,0,0-.07-.34.77.77,0,0,0-.19-.3l-5-5V87.93Zm10.83,10.83a.92.92,0,0,0,.64.27h0a.89.89,0,0,0,.64-.27l3.76-3.75v2.74l-4.4,4.4-4.4-4.4V98.54Zm-7.78,3.76,2.21-2.21v2.21Zm4-2.21,2.22,2.21H49.53ZM27,111.35H24.3l3.49-3.49h2.75ZM33.63,107a1,1,0,0,0-.07-.35.91.91,0,0,0-.49-.49,1,1,0,0,0-.35-.07H23v-3.49h9.7a.91.91,0,1,0,0-1.81H23V97.26h8.87a6.21,6.21,0,0,0,5.23,5.22v3.57H35.37a.91.91,0,0,0,0,1.81h.47l-2.21,2.21ZM7.11,101.65a4.41,4.41,0,0,1,3.5-4.3V106A4.42,4.42,0,0,1,7.11,101.65Zm9.7-4.39h4.4v.84H12.42v-.84Zm-4.39,2.65h8.79v6.14H12.42Zm20.3-8h0a.88.88,0,0,0,.64-.26l3.76-3.76v2.74l-4.4,4.4-4.4-4.4V87.93l3.76,3.76a1,1,0,0,0,.3.2A1,1,0,0,0,32.72,92Zm5.3,8.8a4.41,4.41,0,0,1-4.3-3.49h8.61A4.41,4.41,0,0,1,38,100.75Zm-3.11-5.3,2.21-2.22v2.22Zm4,0V93.23l2.21,2.22ZM28.32,93.23l2.22,2.22H28.32Zm-1.81,2.22H24.3l2.21-2.22Zm-7-1.89,1.09,1.89H18.38ZM5.28,97.26H7.14a5.9,5.9,0,0,0-.93,1.18A5.9,5.9,0,0,0,5.28,97.26Zm.93,7.6a6.27,6.27,0,0,0,1.16,1.4,3.31,3.31,0,0,0-2.32,0A6.27,6.27,0,0,0,6.21,104.86Zm-1.75,4.75a1.75,1.75,0,0,1,3.5,0v1.74H4.46Zm6.15,7H1.81v-3.5h8.8Zm8.86-8a3.58,3.58,0,0,0-2.66,1.21,3.52,3.52,0,0,0-6.07,1.44h-1v-1.74a3.49,3.49,0,0,0-.91-2.35,6.17,6.17,0,0,0,2.65.6H25.23l-2.67,2.68A3.55,3.55,0,0,0,19.47,108.7ZM23,113.16h3.49v3.5H23Zm5.3,2.22v-2.75l3.5-3.49v2.74Zm30.27-3.76h0l-2,2-1.36-1.35,4-4,1.39,1.38Zm17.46-3.76h6.14v8.8H76.05Zm12.35,8.8a1.75,1.75,0,1,1,1.75-1.75A1.76,1.76,0,0,1,88.4,116.66Zm5.3,0a1.75,1.75,0,1,1,1.75-1.75A1.75,1.75,0,0,1,93.7,116.66Zm1.75-8.8v3.49H87.21L89,107.86Zm-10.61,2.81v6H84v-6Zm-1.28-8.11-3.49,3.49H64.91l-4.77-4.77V98.54l3.76,3.75a.84.84,0,0,0,.29.2,1,1,0,0,0,.35.07h19ZM53,96.35a.9.9,0,0,0,.9.91h3.12l-3.12,3.11-4.49-4.49a6.22,6.22,0,0,0-5.72-5.72L39.3,85.75,44,81.08,49.1,76a.86.86,0,0,0,.44-.46.89.89,0,0,0-.19-1l-4.66-4.67,3.11-3.11v3.11a.91.91,0,0,0,.91.91h4.4v3.94L43,84.83a.88.88,0,0,0-.62.84.87.87,0,0,0,.31.67.13.13,0,0,0,0,0,.88.88,0,0,0,.92.21A9.78,9.78,0,0,1,53,96.35ZM54.92,72.5V70.75h3.49v3.49H54.92Zm5.3.46V70.22l3.49-3.49v2.74ZM65.48,62.4c0-.14,0-.28,0-.43a3.53,3.53,0,0,0-.56-1.9.8.8,0,0,0,.3-.19l5-5.06A6.21,6.21,0,0,0,76.11,49l5-5.06a.91.91,0,0,0,.26-.69s0-.05,0-.08v-5l3.28,4.92L74.58,53.3ZM86.73,33.63h2.21l-2.21,2.21Zm0,5.3h3.49v3.5H86.73ZM92,41.15V38.4l3.5-3.49v2.74Zm2.22-7.52-3.5,3.49H88l3.49-3.49Zm-9.33-.53v7.12l-3.64-5.46a.91.91,0,0,0-1-.36.9.9,0,0,0-.64.86V41l-3.76-3.76a.91.91,0,0,0-1-.19.87.87,0,0,0-.42.36L71.85,40a.91.91,0,0,0,0,1.28.89.89,0,0,0,1.28,0l1.19-1.18V43.2a.91.91,0,1,0,1.81,0V40.09l3.18,3.18-3.48,3.47a6.21,6.21,0,0,0-12,1H56.2L60,44a.91.91,0,0,0,.19-1v-4.6l3.64,5.46.1.11s0,0,0,0h0a1.06,1.06,0,0,0,.26.17l.06,0a.81.81,0,0,0,.31.06.82.82,0,0,0,.26,0l0,0,.1-.05a.76.76,0,0,0,.19-.12s0,0,.05,0L75.61,33.53a.82.82,0,0,0,.25-.16l3.76-3.76v3.12a.91.91,0,0,0,1.81,0V29.61Z"/><path class="cls-1" d="M80.45,108.93H77.79a.68.68,0,0,0,0,1.36h2.66a.68.68,0,0,0,0-1.36Z"/><path class="cls-1" d="M77.79,112.94h2.65a.68.68,0,0,0,0-1.36H77.79a.68.68,0,0,0,0,1.36Z"/><path class="cls-1" d="M80.45,114.23H77.79a.68.68,0,0,0,0,1.36h2.66a.68.68,0,0,0,0-1.36Z"/><path class="cls-1" d="M27.42,24.09H24.77a.68.68,0,0,0,0,1.36h2.65a.68.68,0,0,0,0-1.36Z"/><path class="cls-1" d="M27.42,26.74H24.77a.68.68,0,0,0,0,1.36h2.65a.68.68,0,1,0,0-1.36Z"/><path class="cls-1" d="M27.42,29.39H24.77a.68.68,0,0,0,0,1.36h2.65a.68.68,0,0,0,0-1.36Z"/><path class="cls-1" d="M52.29,46a.93.93,0,0,0-.27-.65l-2.67-2.67a.93.93,0,0,0-1.28,0L42.77,48a.89.89,0,0,0,0,1.28l2.62,2.63a.9.9,0,0,0,.64.27.93.93,0,0,0,.64-.26l2-2,3.23,3.19a.89.89,0,0,0,.63.26.92.92,0,0,0,.65-.27.91.91,0,0,0,0-1.28L50,48.63l2-2A1,1,0,0,0,52.29,46Zm-4.23,2h0l-2,2-1.35-1.36,4-4L50.1,46Z"/></g></g></svg>